<svg xmlns="http://www.w3.org/2000/svg" width="512" height="512" viewBox="0 0 512 512">
  <path fill="#454646" d="M445.7,413.5c3,3,3,7.9,0,11l-21.3,21.3c-3,3-7.9,3-11,0L305.7,337.9c-3-3-3-7.9,0-10.9l21.3-21.3  c3-3,7.9-3,11,0L445.7,413.5z"/>
  <path fill="#454646" d="M296.5,103.9C269.9,77.3,235,64,200.2,64s-69.7,13.3-96.3,39.9c-53.2,53.2-53.2,139.4,0,192.6  c26.6,26.6,61.4,39.9,96.3,39.9c34.8,0,69.7-13.3,96.3-39.9C349.6,243.3,349.6,157.1,296.5,103.9z M269.1,269.1  c-18.4,18.4-42.9,28.5-68.9,28.5c-26,0-50.5-10.1-68.9-28.5c-11.2-11.2-19.3-24.6-24-39.2l29.9,0l24.2-42.1l35.4,88.3l36.5-63.1  l10.1,16.6h28.7c0,0,5.2-12.2,5.2-26H258l-21.3-45.8l-34.2,59.5l-36.8-87.8l-42.9,74.5h-20c0-1.2-0.1-2.4-0.1-3.6  c0-26,10.1-50.5,28.5-68.9c18.4-18.4,42.9-28.5,68.9-28.5c26,0,50.5,10.1,68.9,28.5C307.1,169.3,307.1,231.1,269.1,269.1z"/>
</svg>
