<svg xmlns="http://www.w3.org/2000/svg" width="512" height="512" viewBox="0 0 512 512"><path d="M437.974 80H74.031c-6.39 0-10.845 5.166-9.906 11.478l4.317 28.937c.946 6.313 5.34 15.238 9.763 19.837l127.396 132.38c4.424 4.6 8.727 13.54 9.559 19.86L231.494 420.5c.832 6.328 6.737 11.501 13.128 11.501h22.754c6.39 0 12.303-5.173 13.135-11.5l16.326-128.008c.84-6.32 5.142-15.26 9.567-19.86l127.389-132.38c4.431-4.6 8.825-13.524 9.763-19.837l4.317-28.937C448.82 85.166 444.365 80 437.974 80zm-65.524 54.774l-36.132 37.547a12 12 0 0 1-8.646 3.68H184.33a12 12 0 0 1-8.647-3.68l-36.133-37.547c-2.446-2.541-.645-6.774 2.882-6.774h227.135c3.527 0 5.328 4.232 2.883 6.774z"/></svg>
