<?xml version="1.0" standalone="no"?>
<!DOCTYPE svg PUBLIC "-//W3C//DTD SVG 1.1//EN" "http://www.w3.org/Graphics/SVG/1.1/DTD/svg11.dtd" >
<svg xmlns="http://www.w3.org/2000/svg">
<metadata>Generated by IcoMoon</metadata>
<defs>
<font id="icomoon" horiz-adv-x="512">
<font-face units-per-em="512" ascent="480" descent="-32" />
<missing-glyph horiz-adv-x="512" />
<glyph unicode="&#x20;" d="" horiz-adv-x="256" />
<glyph unicode="&#xe000;" d="M288 355.814v124.186l192-192-192-192v126.912c-223.375 5.241-213.794-151.896-156.93-254.912-140.356 151.707-110.55 394.785 156.93 387.814z" />
<glyph unicode="&#xe001;" d="M367.497 77.313c-9.476 1.494-9.692 27.327-9.692 27.327s27.844 27.328 33.912 64.076c16.326 0 26.407 39.069 10.082 52.814 0.681 14.47 20.984 113.588-81.799 113.588s-82.479-99.118-81.799-113.588c-16.327-13.745-6.244-52.814 10.081-52.814 6.067-36.748 33.913-64.076 33.913-64.076s-0.216-25.833-9.692-27.327c-30.524-4.816-144.503-54.658-144.503-109.313h384c0 54.655-113.979 104.497-144.503 109.313zM172.027 68.595c22.047 13.575 48.813 26.154 70.769 33.712-7.876 11.216-16.647 26.468-22.165 44.531-7.703 6.283-13.972 15.266-17.999 26.301-4.033 11.052-5.561 23.426-4.304 34.842 0.902 8.196 3.239 15.833 6.825 22.544-2.175 23.293-3.707 69.017 26.224 102.366 11.607 12.933 26.278 22.23 43.85 27.843-3.137 32.38-19.58 70.385-83.227 70.385-102.782 0-82.479-99.118-81.799-113.588-16.327-13.745-6.244-52.814 10.081-52.814 6.067-36.748 33.913-64.076 33.913-64.076s-0.216-25.833-9.692-27.327c-30.524-4.817-144.503-54.659-144.503-109.314h164.798c2.355 1.537 4.753 3.070 7.229 4.595z" />
<glyph unicode="&#xe002;" d="M512 64v384h-512v-384h224v-32h-96v-32h256v32h-96v32h224zM64 384h384v-256h-384v256z" />
<glyph unicode="&#xe003;" d="M512 320l-256 128-256-128 256-128 256 128zM256 405.515l171.029-85.515-171.029-85.515-171.029 85.515 171.029 85.515zM460.722 249.639l51.278-25.639-256-128-256 128 51.278 25.639 204.722-102.361zM460.722 153.639l51.278-25.639-256-128-256 128 51.278 25.639 204.722-102.361z" />
<glyph unicode="&#xe004;" d="M123.151 131.645c2.604 7.815 10.858 17.124 19.211 15.871 8.351-1.252 22.548-16.705 38.001-44.684 15.452-27.981 28.817-41.351 31.321-50.533 2.506-9.188-1.669-23.804-9.605-28.816-7.935-5.009-19.212-8.767-43.014 0-23.805 8.771-68.908 16.283-74.337 20.881-5.428 4.592-7.935 9.188-7.516 12.947 0.418 3.758 5.847 6.263 5.847 13.361 0 7.102-7.1 27.148-3.341 33.829 3.759 6.682 12.11 8.766 25.057 9.188 12.946 0.417 14.199 5.427 18.376 17.956zM328.203 15.962c0 0-15.034 2.512-16.29 16.706-1.251 14.199 5.012 31.323 5.012 41.764s-3.341 58.049 0.835 62.225c4.175 4.175 15.867 5.012 15.867 5.012s-0.164-33.83 18.086-32.575c18.25 1.254 34.953 4.594 44.559 27.978 0 0 7.934-2.922 7.518-17.121-0.418-14.197 7.518-22.132 13.781-25.057 6.263-2.92 26.309-16.706 10.022-27.563-16.285-10.859-50.531-33.83-58.884-41.344-8.35-7.513-24.219-15.867-40.506-10.025zM307.738 80.696c0 0 3.759-12.11 0-25.893s-2.922-22.969-2.922-22.969-17.92 3.286-39.884 3.341c-19.371 0.047-36.541 0.835-44.475-3.341 0 0 2.506 11.694 0 24.432 0 0 61.39-9.399 87.281 24.43zM293.541 302.45c0 0 12.526-7.517 15.869-27.145 3.341-19.627 22.969-55.125 25.475-73.5 2.502-18.376 3.341-80.6 12.526-84.359 9.189-3.759 43.772-11.683 50.949 50.532 3.759 32.575-16.819 73.617-37.585 94.379-16.379 16.384-24.222 20.467-31.738 61.811-7.518 41.339-7.153 66.624-17.288 84.359-6.683 11.691-18.626 25.473-55.213 25.473-27.755 0-45.688-10.022-51.534-22.553-5.843-12.526-11.273-38.417-8.77-69.322 2.509-30.905 2.509-50.954 2.509-50.954s-23.387-28.813-35.499-51.778c-12.112-22.971-16.704-40.927-21.297-49.699-4.596-8.769-13.782-21.299-11.694-36.333 0 0 13.363 16.706 24.638 0.837 11.277-15.871 44.27-71.271 44.27-71.271s8.966-1.813 13.252 4.452c4.286 6.263-37.476 48.442-37.476 48.442s-16.287 11.279-10.856 36.752c5.428 25.475 30.066 85.807 30.066 85.807l12.531 21.103v21.297c0 0-16.706 17.958 2.085 31.324 0 0-3.338 9.604-3.338 20.879s4.176 21.716 12.528 21.716c8.353 0 18.235-11.831 18.235-27.284l14.612 0.142c0 16.424 8.078 29.231 21.027 29.65 12.944 0.417 22.548-14.618 22.548-25.895 0-11.273-1.669-16.285-1.669-16.285s9.606-6.263 9.606-14.616c0-8.355-8.769-17.961-8.769-17.961zM243.424 343.377c10.86 0 45.353-12.697 50.117-17.541 4.63-4.708 4.175-9.606-2.924-15.45-7.1-5.847-29.443-25.473-47.192-25.473-18.164 0-33.826 20.879-33.826 20.879s19.211-10.443 27.562-10.443c13.638 0 41.342 8.771 48.446 22.552 0 0-32.993-17.124-47.609-16.706-14.62 0.419-23.806 7.102-28.399 10.442-4.596 3.34-6.682 9.187-1.671 13.363 5.012 4.18 20.046 18.377 35.496 18.377zM216.488 337.753c0 0 9.606 6.045 12.321 7.087 0 0-0.638 10.279-6.161 13.154-4.282 2.227-11.241 0.115-11.519-8.491-0.243-7.555 5.359-11.75 5.359-11.75zM263.472 344.631c0 0 10.231-3.736 16.288-6.878 0 0 6.977 10.991 3.548 16.902-4.524 7.793-12.389 5.443-15.52 2.225-3.134-3.22-4.316-12.249-4.316-12.249z" horiz-adv-x="511" />
<glyph unicode="&#xe005;" d="M206.115 224.043c-23.854 12.259-47.043 18.479-68.94 18.479-2.978 0-5.976-0.090-8.974-0.354-27.94-2.312-53.461-9.684-69.875-15.414-4.354-1.599-8.817-3.288-13.415-5.153l-44.911-155.697c30.851 11.416 58.146 16.969 83.135 16.969 40.423 0 69.764-15.104 93.996-30.652 11.481 38.959 39.022 133.045 47.241 161.162-5.975 3.642-12.038 7.285-18.257 10.66zM264.174 184.465l-45.223-157.074c13.416-7.686 58.549-32.025 93.106-32.025 27.896 0 59.126 7.148 95.417 21.896l43.178 150.988c-29.316-9.461-57.438-14.26-83.732-14.26-47.975 0-81.557 15.549-102.746 30.475zM146.411 295.605c38.559-0.399 67.076-15.104 90.708-30.251l46.376 158.672c-9.773 5.598-35.403 19.547-53.929 24.3-12.193 2.842-25.010 4.308-38.602 4.308-25.898-0.488-54.194-6.973-86.444-19.9l-44.22-155.298c32.404 12.218 60.322 18.17 86.043 18.17 0.023-0.001 0.068-0.001 0.068-0.001zM512 380.938c-29.407-11.416-58.104-17.233-85.514-17.233-45.843 0-79.646 15.901-101.547 31.183l-45.975-159.118c30.873-19.854 64.145-29.939 99.061-29.939 28.474 0 57.97 6.84 87.731 20.344l-0.091 1.111 1.867 0.443 44.468 153.209z" />
<glyph unicode="&#xe006;" d="M0.175 224l-0.175 156.037 192 26.072v-182.109zM224 410.759l255.936 37.241v-224h-255.936zM479.999 192l-0.063-224-255.936 36.008v187.992zM192 8.082l-191.844 26.297-0.010 157.621h191.854z" />
<glyph unicode="&#xe007;" d="M224 128h64v-64h-64zM352 352c17.673 0 32-14.327 32-32v-96l-96-64h-64v32l96 64v32h-160v64h192zM256 432c-55.559 0-107.792-21.636-147.078-60.922s-60.922-91.519-60.922-147.078c0-55.559 21.636-107.792 60.922-147.078s91.519-60.922 147.078-60.922c55.559 0 107.792 21.636 147.078 60.922s60.922 91.519 60.922 147.078c0 55.559-21.636 107.792-60.922 147.078s-91.519 60.922-147.078 60.922zM256 480v0c141.385 0 256-114.615 256-256s-114.615-256-256-256c-141.385 0-256 114.615-256 256s114.615 256 256 256z" />
<glyph unicode="&#xe008;" d="M414.070 247.108l49.161 39.043-21.713 48.813-3.79-0.526-0.229 0.501-58.833-8.441c-8.146 9.812-17.358 18.482-27.382 25.947l7.154 62.393-49.875 19.162-38.070-50.474c-12.567 1.195-25.348 0.919-38.104-0.951l-39.039 49.152-48.825-21.713 8.761-62.59c-9.925-8.22-18.702-17.514-26.233-27.637l-62.392 7.149-19.163-49.863 50.475-38.087c-1.184-12.436-0.911-25.076 0.894-37.693l-46.349-36.573 0.229-0.513-2.977-2.362 21.704-48.809 62.608 8.753c8.21-9.926 17.506-18.703 27.628-26.238l-7.154-62.389 49.866-19.162 38.095 50.466c12.552-1.181 25.34-0.91 38.088 0.96l39.046-49.161 48.808 21.718-8.752 62.594c9.926 8.22 18.703 17.518 26.242 27.633l62.384-7.149 19.172 49.867-50.482 38.086c1.196 12.566 0.924 25.339-0.953 38.094zM223.766 295.331c39.399 17.526 85.543-0.205 103.072-39.609 17.514-39.399-0.214-85.534-39.613-103.063-39.399-17.514-85.542 0.213-103.063 39.612-17.522 39.395 0.212 85.542 39.604 103.060z" horiz-adv-x="511" />
<glyph unicode="&#xe009;" d="M114.229 128.996l-19.87 19.837 277.208 277.598 20.063-20.034zM151.242 92.017l-28.474 28.44 277.016 277.788 28.478-28.433zM105.837 36.501l-60.528-22.501 22.957 62.113c0 0 17.978-1.577 24.546-14.853 8.937-18.072 13.025-24.759 13.025-24.759zM101.589 69.75c7.394-14.943 12.36-24.197 15.145-29.206l52.908 19.672-78.312 78.32-18.215-49.296c7.721-1.715 22.061-6.543 28.474-19.49zM179.425 63.805l-19.87 19.845 277.208 277.589 20.064-20.041zM459.864 349.844l5.714 5.719c0 0 3.514 17.041-28.955 49.456-32.464 32.415-49.493 28.867-49.493 28.867l-5.649-5.666 78.383-78.376z" horiz-adv-x="511" />
<glyph unicode="&#xe00a;" d="M382 225.327c0 0.952-0.088 1.871-0.281 2.772-1.579 65.417-53.365 118.608-118.231 122.496-2.416 0.373-4.878 0.568-7.354 0.568-2.338 0-4.66-0.172-6.958-0.511-66.297-3.495-119.176-58.522-119.176-125.657 0-69.374 56.473-125.832 125.887-125.832 68.603 0 124.556 55.169 125.832 123.459 0.193 0.886 0.281 1.784 0.281 2.705zM336.729 212.405c-1.666-0.363-3.458-0.698-5.205-1.032 0.316 4.606 0.433 9.264 0.433 13.954 0 4.705-0.158 9.361-0.461 13.968 1.747-0.334 3.445-0.673 5.11-1.032 22.567-4.8 30.335-10.276 31.836-12.483 0-0.264 0.119-0.517 0.119-0.785 0-0.027 0-0.058 0-0.094 0-2.201-9.236-7.675-31.832-12.496zM143.714 225.327c0.66 1.836 7.698 7.77 31.955 12.936 1.661 0.359 3.379 0.698 5.119 1.032-0.295-4.607-0.463-9.264-0.463-13.968 0-4.69 0.168-9.348 0.463-13.954-1.739 0.334-3.458 0.669-5.119 1.032-24.257 5.174-31.295 11.103-31.955 12.922zM193.761 225.327c0 5.48 1.194 10.876 1.616 16.189 16.566 2.311 32.058 3.661 56.26 3.894v-40.152c-24.202 0.242-39.693 1.586-56.26 3.895-0.422 5.311-1.616 10.713-1.616 16.174zM263.738 337.021c12.091-2.762 25.698-13.467 35.757-30.823 8.301-14.292 14.267-31.788 17.227-50.913-16.152 2.083-32.829 3.306-52.984 3.548v78.188zM251.636 337.121v-78.285c-24.202-0.223-38.34-1.449-54.644-3.552 2.966 19.125 9.282 36.621 17.563 50.913 10.193 17.582 20.954 28.33 37.081 30.924zM251.636 191.842v-78.295c-16.127 2.597-27.372 13.342-37.569 30.921-8.295 14.3-13.609 31.8-16.59 50.921 16.316-2.106 29.958-3.327 54.159-3.547zM263.738 113.646v78.195c20.155 0.241 36.667 1.464 52.821 3.547-2.963-19.121-8.619-36.621-16.908-50.921-10.068-17.357-23.822-28.049-35.913-30.821zM263.738 205.264v40.136c20.155-0.247 38.021-1.589 54.444-3.884 0.435-5.313 0.492-10.709 0.492-16.189 0-5.461 0.017-10.862-0.431-16.174-16.412-2.296-34.35-3.637-54.505-3.889zM366.917 242.795c-6.329 3.041-14.657 5.718-25.044 8.060-3.725 0.845-7.654 1.616-11.771 2.331-2.994 22.395-9.598 43.003-19.311 59.745-3.347 5.792-6.989 10.964-10.869 15.493 34.936-14.914 60.826-47.028 66.995-85.629zM212.632 328.758c-3.978-4.617-7.725-9.895-11.16-15.827-9.71-16.742-16.316-37.35-19.312-59.745-4.095-0.715-8.025-1.486-11.761-2.331-10.693-2.412-19.208-5.176-25.598-8.323 6.139 39.010 32.418 71.421 67.831 86.226zM144.684 208.194c6.409-3.168 14.964-5.951 25.715-8.382 3.736-0.835 7.666-1.612 11.761-2.329 2.996-22.397 9.602-42.997 19.312-59.746 3.7-6.389 7.756-12.022 12.071-16.87-36.086 14.719-62.883 47.66-68.859 87.327zM299.011 121.194c4.216 4.774 8.166 10.305 11.779 16.543 9.712 16.749 16.316 37.348 19.311 59.746 4.118 0.717 8.047 1.494 11.771 2.329 10.459 2.361 18.818 5.055 25.175 8.113-6.020-39.26-32.418-71.889-68.036-86.731zM445 434h-378c-11.538 0-21-9.45-21-21v-378c0-11.549 9.462-21 21-21h378c11.563 0 21 9.45 21 21v378c0 11.55-9.437 21-21 21z" />
<glyph unicode="&#xe00b;" d="M255.993 434c-101.732 0-184.201-28.035-184.201-62.631v-294.741c0-34.593 82.469-62.627 184.201-62.627 101.76 0 184.215 28.034 184.215 62.627v294.741c0 34.596-82.455 62.631-184.215 62.631zM255.993 413.054c81.43 0 147.423-17.297 147.423-38.623 0-21.321-65.994-38.62-147.423-38.62-81.402 0-147.41 17.298-147.41 38.62 0 21.326 66.008 38.623 147.41 38.623zM406.698 97.729c0-28.291-67.457-51.238-150.705-51.238-83.234 0-150.691 22.948-150.691 51.238v237.635c33.318-16.092 88.389-26.626 150.691-26.626 62.34 0 117.387 10.534 150.705 26.626v-237.635z" />
<glyph unicode="&#xe00c;" d="M45.501 334.020v-218.925l129.014 118.293zM445.013 350h-379.026l189.514-147.82zM255.501 170.22l-60.836 47.451-130.523-119.671h382.716l-130.528 119.671zM465.501 115.095v218.925l-129.016-100.632z" horiz-adv-x="511" />
<glyph unicode="&#xe00d;" d="M465.998 224.282c0 1.569-0.178 3.104-0.492 4.605-2.652 109.024-88.949 197.682-197.024 204.159-4.060 0.626-8.162 0.954-12.291 0.954-3.882 0-7.765-0.304-11.593-0.861-110.495-5.814-198.597-97.535-198.597-209.425 0-115.636 94.1-209.714 209.779-209.714 114.352 0 207.607 91.938 209.726 205.763 0.315 1.477 0.492 2.974 0.492 4.519zM390.517 202.728c-2.766-0.597-5.729-1.151-8.654-1.712 0.506 7.677 0.725 15.435 0.725 23.266s-0.274 15.586-0.793 23.267c2.912-0.551 5.756-1.119 8.531-1.72 37.611-8.004 50.559-17.117 53.047-20.801 0-0.441 0.205-0.868 0.205-1.313 0-0.041 0-0.091 0-0.153-0.001-3.668-15.395-12.802-53.061-20.834zM68.833 224.282c1.107 3.042 12.824 12.938 53.252 21.547 2.775 0.602 5.632 1.169 8.544 1.72-0.505-7.681-0.752-15.436-0.752-23.267s0.247-15.589 0.752-23.266c-2.912 0.561-5.769 1.115-8.544 1.712-40.427 8.624-52.144 18.512-53.252 21.554zM152.245 224.282c0 9.112 2.010 18.119 2.694 26.965 27.616 3.858 53.439 6.104 93.761 6.497v-66.923c-40.321 0.4-66.145 2.646-93.761 6.494-0.684 8.852-2.694 17.861-2.694 26.967zM268.865 410.43c20.152-4.607 42.834-22.449 59.596-51.375 13.835-23.824 23.775-52.978 28.711-84.861-26.91 3.476-54.715 5.504-88.307 5.92v130.316zM248.7 410.591v-130.477c-40.321-0.369-63.875-2.414-91.054-5.92 4.922 31.884 15.445 61.038 29.258 84.861 16.993 29.301 34.917 47.209 61.796 51.536zM248.7 168.443v-130.476c-26.879 4.321-45.609 22.24-62.617 51.539-13.809 23.83-22.668 52.985-27.617 84.867 27.179-3.507 49.912-5.547 90.234-5.93zM268.865 38.138v130.319c33.592 0.402 61.11 2.437 88.047 5.916-4.936-31.881-14.369-61.037-28.177-84.867-16.79-28.93-39.718-46.755-59.87-51.368zM268.865 190.833v66.889c33.592-0.417 63.369-2.645 90.74-6.476 0.725-8.846 0.82-17.853 0.82-26.965 0-9.105 0.028-18.115-0.7-26.968-27.368-3.823-57.268-6.048-90.86-6.48zM440.843 253.375c-10.555 5.076-24.432 9.536-41.743 13.439-6.231 1.402-12.766 2.694-19.616 3.886-5.003 37.331-16.010 71.667-32.184 99.569-5.591 9.659-11.661 18.269-18.115 25.826 58.228-24.859 101.362-78.367 111.658-142.72zM183.704 396.652c-6.644-7.687-12.878-16.495-18.593-26.383-16.201-27.901-27.207-62.238-32.197-99.569-6.822-1.192-13.385-2.484-19.605-3.886-17.832-4.029-32.006-8.627-42.656-13.876 10.236 65.013 54.030 119.044 113.051 143.714zM70.461 195.715c10.664-5.281 24.91-9.93 42.847-13.97 6.221-1.384 12.783-2.684 19.605-3.879 4.99-37.324 15.996-71.664 32.197-99.589 6.152-10.626 12.902-20.012 20.111-28.105-60.141 24.531-104.807 79.429-114.76 145.543zM327.664 50.719c7.031 7.954 13.607 17.168 19.636 27.559 16.174 27.925 27.18 62.265 32.184 99.589 6.85 1.196 13.385 2.495 19.616 3.879 17.435 3.934 31.366 8.422 41.948 13.525-10.021-65.426-54.031-119.827-113.384-144.552z" />
<glyph unicode="&#xe00e;" d="M294.114 391.74l-11.583 1.445 8.688-8.205h17.618l-7.24 8.205zM340.935 351.434c0.243-0.726 7.483-3.861 7.483-3.861s1.931-6.034 1.207-7.244c-0.724-1.205-1.207-6.757-1.207-7.722s4.827-3.619 7.24-4.105c2.413-0.479 6.759 0 8.205 0 1.452 0 3.139 1.691 3.861 3.383 0.726 1.687-2.652 4.826-3.861 5.070-1.205 0.238-5.309 6.996-6.031 7.721-0.726 0.722-7.483 3.618-7.483 3.618s-3.142 10.619-3.378 11.584c-0.239 0.965-3.622 3.621-4.344 3.621s-4.587 0-4.587 0c-2.169-2.169-0.965-6.030 0-7.239s2.657-4.105 2.895-4.826zM336.82 335.263c1.924-1.931 5.085-3.865 6.29-1.931 1.205 1.931-0.243 2.896 3.378 6.518 3.622 3.618-0.239 2.17-1.448 4.826-1.209 2.653-1.209 2.653-1.931 3.618-0.729 0.966-3.142 1.209-5.309 1.209-2.174 0-2.174-1.931-3.378-4.827 0 0-0.244-1.208 0-2.656 0.239-1.448 0.482-4.827 2.398-6.757zM391.377 293.508c-1.931 0.482-5.187-3.461-3.618-2.413 1.448 0.965 4.827-1.931 3.835-3.1-0.992-1.175-1.908-3.896-1.183-5.105 0.727-1.209 2.174 0 4.105 1.209 1.931 1.204 0.239 4.583 0 6.996-0.242 2.413-1.208 1.93-3.139 2.413zM448.986 305.752c-10.579 25.006-25.719 47.465-44.995 66.74-19.28 19.275-41.733 34.415-66.744 44.994-25.906 10.958-53.412 16.514-81.748 16.514-28.339 0-55.843-5.557-81.751-16.514-25.008-10.579-47.462-25.719-66.741-44.994-19.277-19.275-34.416-41.734-44.995-66.74-10.958-25.907-16.512-53.413-16.512-81.753 0-28.337 5.555-55.843 16.512-81.75 10.579-25.006 25.718-47.465 44.995-66.74 19.279-19.28 41.733-34.42 66.741-44.995 25.908-10.957 53.412-16.514 81.751-16.514 28.337 0 55.843 5.557 81.749 16.514 25.010 10.575 47.464 25.715 66.744 44.995 19.275 19.275 34.416 41.733 44.995 66.74 10.956 25.906 16.513 53.412 16.513 81.75 0 28.34-5.557 55.846-16.514 81.753zM433.976 239.208c-1.087 0-2.172 4.766-6.152 7.27-3.985 2.505-9.053 3.949-9.775 2.505-0.726-1.453-2.174-8.271-3.983-2.505-1.813 5.758 4.705 4.314-2.896 9.019-7.605 4.705-8.688 7.601-11.948 12.671-3.257 5.070-8.675 8.326-14.836 8.326s-9.418 3.257-14.488 0c-2.387-1.535-5.82-3.265-9.235-5.109-0.266 2.339-0.167 4.749 1.27 5.109 2.896 0.727 3.204 0.361 6.669 1.448 3.468 1.087 6.005 1.809 5.64 6.517-0.36 4.706-1.448 9.771 3.983 10.137s11.584 0.365 13.031 3.261c1.449 2.896 14.484-15.571 15.206-17.019 0.726-1.448 0.726-9.775 2.894-8.327 2.177 1.447 3.625 6.518 3.625 6.518s-10.862 13.032-12.31 15.201c-1.448 2.174-4.344 6.156-3.618 7.966 0.722 1.809 3.257 2.896 6.514 1.087 3.262-1.809 4.344-5.070 5.070-6.879 0.719-1.809-0.361-0.722 2.169-6.514 2.535-5.791 0-7.243 2.175-8.331 2.173-1.083 3.98-3.979 3.622-5.791-0.366-1.81-2.9-2.531-2.174-4.705s1.809-3.539 3.983-4.666c2.17-1.126 3.622-2.857 3.983 0s1.807 4.305 0 5.752c-1.813 1.448-1.813-1.447-1.813 1.448s2.146 1.813 2.702 4.344c0.317 1.435 1.263 10.379 1.961 18.675 2.098-4.9 3.966-9.921 5.64-15.031-1.696-2.456-2.961-5.062-3.059-7.144-0.244-5.066-2.827-9.653-1.778-11.583 0.634-1.166 5.996-4.092 11.15-6.44 0.296-1.652 0.606-3.296 0.854-4.965-4.068 1.883-7.157 3.052-6.611 1.73 1.448-3.479 3.622-13.975 2.535-13.975zM388.486 351.951c-1.040-2.422-1.601-4.718-0.849-6.057 2.171-3.875 8.327-8.939 6.512-11.114-1.806-2.174-0.098-1.040-8.32 2.174-1.426 0.556-2.687 1.043-3.88 1.49l-1.434 4.301 3.379 2.652-2.652 4.827-3.14 5.553-0.259 6.4c3.683-3.264 7.23-6.682 10.643-10.226zM71.003 220.050l4.689-11.257 1.931 8.24 6.759-15.962 7.723-8.688 8.689 2.413 7.723-5.309 11.103-7.24 9.653-6.761 12.551-1.931 3.378-9.653-7.724-2.414 11.103-27.997 17.375-17.858 19.311-10.618 10.62-22.206 7.723-13.514 11.585-13.036 30.226-16.571c-95.956 5.162-172.38 83.611-174.418 180.362zM255.499 39.402c-1.937 0-3.853 0.086-5.777 0.147l-18.116 13.814c0 0-3.378 7.24-3.378 8.687 0 1.453 1.448 9.658 1.448 9.658l4.827 10.618 1.931 11.583 9.17 6.757 9.896 11.105 0.62 15.444 7.828 6.275v10.14l-8.448 9.653-16.653 4.344h-14.868l-11.921 17.375-14.723 9.175-16.412 5.31-16.412 2.896-18.825-0.482-7.723-7.723h-7.725l-6.759 5.792 2.897 6.757c0 0-7.724 4.344-10.137 4.827-2.414 0.482-3.861 10.14-3.861 10.14l1.447 5.34 14.479 3.348 6.759-3.348 10.138-3.414 11.101 3.414-6.758 3.831-14.962 0.965-9.17 2.17-11.103-3.618h-12.55l-1.933-10.623h-7.722v28.963l15.93 4.826 3.378 3.862 7.24-6.275 6.759-11.101h3.378l-2.898 5.31-2.413 17.858 5.794 11.105h7.724v15.932h6.757v6.27l5.309 7.722 8.207 2.417v4.583l6.272 4.588 7.483-4.588 4.587 6.519 10.859 4.587v4.344h-11.583l-0.483 11.102-4.346 3.861 7.242 2.174 16.412-2.174-5.794-3.379 3.14-6.997 4.826-0.243 6.757 1.209c0 0-1.448-3.383-1.448-4.104s5.067 0 5.067 0l-0.723 4.344 6.517 1.448-4.104 4.583-5.309 3.383-7.481 2.409-1.447 2.899 3.378 1.448 6.757-4.348 1.207 9.657-6.274 7.483-7 1.209 3.38 13.271-2.654 5.792-9.172-6.757h-5.068l3.378 7.244-1.448 1.688-3.379 4.583-3.86-6.27-2.898 3.861-9.894-10.862 0.482-7.243-9.655-11.101-6.757-5.308 0.48-14.48-5.79 9.653 1.931 7.722-8.69 3.861 1.472 14.305c17.305 15.228 37.467 27.277 59.604 35.208l-0.067-0.274-5.983-4.587c0 0-6.514-5.792-6.996-6.518-0.482-0.722-5.309-3.861-5.309-3.861l6.274-0.482 1.205-5.792h7.485l4.343 2.896 3.379 4.827v3.378l1.447 3.622 4.103-1.447c0 0 5.551 0 7.483 0 1.931 0 0 6.274 0 6.274l-1.603 6.839c7.289 1.896 14.766 3.305 22.376 4.297-2.394-3.696-4.485-7.036-4.485-7.036s-4.705-15.201-2.17-17.010c2.532-1.813 15.022-15.932 19.731-13.035 4.705 2.896 1.987 15.205 7.24 18.101 5.249 2.896 19.727 9.774 24.615 12.67 2.037 1.204 4.307 3.578 6.283 5.931 23.928-3.521 46.342-11.648 66.361-23.423l0.667-13.67c0 0 7.964-9.14 8.446-9.866s6.757-5.309 6.757-5.309 2.656 4.344 2.896 3.618c0.244-0.722 2.174-3.618 2.174-3.618l-2.174-3.622 5.314-6.032 3.858-2.656 0.856-2.244c-3.216 0.735-5.398 0.209-7.129-2.821-2.9-5.070 0.483-10.501-4.465-11.228-4.949-0.722-10.74-3.618-11.466-4.705-0.722-1.086-2.169-1.809 4.344-3.261 6.517-1.443 7.722-1.809 7.122-6.153-0.605-4.343 2.652-7.604-2.779-7.604-5.427 0-7.272 2.54-11.057 2.54-3.783 0-7.766 3.257-6.318-2.54 1.448-5.792 4.101-7.961 2.414-9.41-1.691-1.448-6.038-0.365-5.669-4.344 0.36-3.983 1.817-13.031 5.252-12.671s6.692 3.236 7.779-0.013c0.809-2.422-0.594-6.862-0.457-9.261-1.802-1.137-3.42-2.297-4.613-3.47-4.344-4.271-6.514-8.532-5.065-11.653 1.448-3.118-1.009-1.669-4.487-3.118-3.479-1.447-13.981-17.015-13.981-17.015l-2.894-22.806v-12.31l3.259-13.758 15.186-16.292h18.484l11.583 1.809 8.688-12.305-4.705-6.879 3.622-10.862-15.934-28.963-5.063-2.174-3.261-5.431-7.722-17.015-11.599-10.136-10.725-7.239c0 0 5.94-3.622 8.219-3.622s20.379 9.053 21.467 9.413c0.467 0.157 10.057 4.871 20.942 10.367-32.434-28.284-74.81-45.451-121.222-45.451z" horiz-adv-x="511" />
<glyph unicode="&#xe00f;" d="M377.852 434h-243.714l-121.861-210 121.861-210h243.714l121.871 210-121.871 210zM355.037 57.694h-198.072l-99.004 166.306 99.003 166.305h198.072l98.975-166.305-98.974-166.306z" />
<glyph unicode="&#xe010;" d="M385.642 370.749h-57.542l-0.001 43.251h-145.204v-43.251h-57.538l-23.17-40.935h306.625l-23.17 40.935zM205.294 392.372h100.409v-21.624h-100.409v21.624zM125.357 314.367l23.17-280.367h213.94l23.174 280.367h-260.284zM189.849 63.349l-23.17 207.763h15.446l23.17-207.763h-15.446zM265.154 63.349h-15.447l-0.001 207.763h15.447l0.001-207.763zM328.87 63.349h-15.445l15.445 207.763h15.448l-15.448-207.763z" horiz-adv-x="511" />
<glyph unicode="&#xe011;" d="M283.214 268.016h-283.714v-50.959h231.778zM165.093 96.81l-20.39-53.59 52.595 18.989c0 0 0.629 7.871-9.988 22.004-7.699 10.25-22.217 12.597-22.217 12.597zM444.156 404.782c-0.534 0-0.804-0.041-0.804-0.041l-4.944-4.848 67.983-69.281 4.998 4.899c0 0 3.196 14.723-24.651 43.054-24.168 24.592-39.071 26.217-42.582 26.217zM155.709 113.090l17.833 49.31h-174.042v-50.96h155.612zM-0.5 373.632h290.409v-50.959h-290.409zM429.162 390.481l-233.769-229.034 67.987-69.28 233.783 229.048zM249.644 80.785l-65.867 67.098-14.375-39.748c6.668-1.543 18.118-6.96 25.941-16.721 10.564-13.181 11.635-20.703 11.421-25.792l42.88 15.163z" horiz-adv-x="511" />
<glyph unicode="&#xe012;" d="M194.442 391.648c28.472 0 55.239-11.088 75.373-31.222 41.558-41.562 41.558-109.184 0-150.741-20.134-20.134-46.901-31.222-75.373-31.222s-55.239 11.088-75.372 31.222c-20.13 20.129-31.218 46.896-31.218 75.369 0 28.471 11.088 55.239 31.222 75.373 20.129 20.133 46.897 31.221 75.368 31.221zM194.442 434c-38.116 0-76.232-14.542-105.316-43.626-58.167-58.167-58.167-152.473 0-210.637 29.084-29.083 67.2-43.625 105.316-43.625s76.237 14.542 105.32 43.625c58.168 58.167 58.163 152.47 0 210.637-29.082 29.084-67.199 43.626-105.32 43.626v0zM463.027 51.757c3.292-3.292 3.292-8.686 0-11.978l-23.297-23.31c-3.297-3.292-8.682-3.292-11.979 0l-117.931 117.931c-3.295 3.292-3.295 8.686 0 11.978l23.307 23.306c3.293 3.292 8.682 3.292 11.978 0l117.922-117.927z" horiz-adv-x="511" />
<glyph unicode="&#xe013;" d="M463.027 51.757c3.292-3.292 3.292-8.686 0-11.978l-23.297-23.31c-3.297-3.292-8.682-3.292-11.979 0l-117.931 117.931c-3.295 3.292-3.295 8.686 0 11.978l23.307 23.306c3.293 3.292 8.682 3.292 11.978 0l117.922-117.927z" horiz-adv-x="511" />
<glyph unicode="&#xe014;" d="M194.442 391.648c28.472 0 55.239-11.088 75.373-31.222 41.558-41.562 41.558-109.184 0-150.741-20.134-20.134-46.901-31.222-75.373-31.222s-55.239 11.088-75.372 31.222c-20.13 20.129-31.218 46.896-31.218 75.369 0 28.471 11.088 55.239 31.222 75.373 20.129 20.133 46.897 31.221 75.368 31.221zM194.442 434c-38.116 0-76.232-14.542-105.316-43.626-58.167-58.167-58.167-152.473 0-210.637 29.084-29.083 67.2-43.625 105.316-43.625s76.237 14.542 105.32 43.625c58.168 58.167 58.163 152.47 0 210.637-29.082 29.084-67.199 43.626-105.32 43.626v0z" horiz-adv-x="511" />
<glyph unicode="&#xe015;" d="M67 434c-11.55 0-21-9.454-21-21v-378c0-11.55 9.45-21 21-21h378c11.55 0 21 9.45 21 21v378c0 11.546-9.45 21-21 21h-378zM145.344 256.531c16.774 0 30.375-14.558 30.375-32.531s-13.601-32.531-30.375-32.531c-16.775 0-30.375 14.558-30.375 32.531s13.6 32.531 30.375 32.531zM253.844 256.531c16.774 0 30.375-14.558 30.375-32.531s-13.601-32.531-30.375-32.531c-16.775 0-30.375 14.558-30.375 32.531s13.6 32.531 30.375 32.531zM362.313 256.531c16.774 0 30.375-14.558 30.375-32.531s-13.601-32.531-30.375-32.531c-16.775 0-30.375 14.558-30.375 32.531s13.6 32.531 30.375 32.531z" />
<glyph unicode="&#xe016;" d="M284.203 224c0-17.973-13.598-32.542-30.373-32.542s-30.373 14.57-30.373 32.542c0 17.973 13.598 32.542 30.373 32.542s30.373-14.57 30.373-32.542zM175.729 224c0-17.973-13.598-32.542-30.373-32.542s-30.373 14.57-30.373 32.542c0 17.973 13.598 32.542 30.373 32.542 16.774 0 30.373-14.57 30.373-32.542zM392.678 224c0-17.973-13.598-32.542-30.373-32.542s-30.373 14.57-30.373 32.542c0 17.973 13.598 32.542 30.373 32.542s30.373-14.57 30.373-32.542z" />
<glyph unicode="&#xe017;" d="M64.431 434.732c-11.55 0-20.994-9.592-20.994-21.313v-383.7c0-11.724 9.444-21.313 20.994-21.313h378.010c11.55 0 20.994 9.588 20.994 21.313v383.7c0 11.72-9.444 21.313-20.994 21.313h-378.010zM253.424 359.439c18.601 0 36.655-3.647 53.662-10.84 16.419-6.945 31.17-16.9 43.827-29.553 12.654-12.653 22.584-27.387 29.529-43.802 7.193-17.007 10.84-35.058 10.84-53.662 0-18.603-3.648-36.68-10.84-53.686-6.945-16.416-16.875-31.149-29.529-43.802-12.657-12.657-27.409-22.587-43.827-29.529-17.006-7.193-35.060-10.84-53.662-10.84-18.603 0-36.654 3.647-53.662 10.84-16.417 6.942-31.147 16.872-43.802 29.529-12.655 12.653-22.608 27.387-29.553 43.802-7.193 17.007-10.84 35.084-10.84 53.686 0 18.604 3.647 36.655 10.84 53.662 6.945 16.415 16.899 31.149 29.553 43.802 12.656 12.653 27.386 22.608 43.802 29.553 17.008 7.193 35.058 10.84 53.662 10.84zM237.605 341.707c-4.996-0.651-9.906-1.6-14.691-2.845l1.055-4.488c0 0 1.268-4.096 0-4.096h-4.93l-2.673 0.932-0.956-2.379v-2.207l-2.232-3.164-2.845-1.913h-4.905l-0.785 3.801-4.12 0.319c0 0 3.166 2.052 3.483 2.526 0.315 0.477 4.585 4.292 4.585 4.292l3.924 3.017 0.049 0.172c-14.532-5.206-27.758-13.106-39.118-23.103l-0.981-9.393 5.714-2.551-1.275-5.052 3.801-6.352-0.319 9.516 4.439 3.483 6.328 7.284-0.294 4.758 6.475 7.137 1.913-2.551 2.526 4.12 2.232-2.992 0.932-1.128-2.207-4.758h3.335l6.009 4.439 1.741-3.801-2.207-8.707 4.586-0.785 4.12-4.93-0.785-6.328-4.439 2.845-2.232-0.932 0.956-1.913 4.905-1.594 3.507-2.207 2.673-3.017-4.267-0.956 0.466-2.845c0 0-3.311-0.473-3.311 0s0.932 2.698 0.932 2.698l-4.415-0.785-3.188 0.147-2.060 4.586 3.801 2.232-10.767 1.422-4.758-1.422 2.869-2.526 0.319-7.309h7.603v-2.845l-7.137-3.017-3.017-4.267-4.905 3.017-4.12-3.017v-3.017l-5.396-1.57-3.483-5.077v-4.12h-4.439v-10.448h-5.052l-3.801-7.309 1.57-11.723 1.913-3.483h-2.232l-4.439 7.284-4.733 4.12-2.232-2.526-10.448-3.164v-19.032h5.052l1.275 6.99h8.241l7.284 2.379 6.035-1.42 9.81-0.638 4.439-2.526-7.284-2.232-6.646 2.232-4.439 2.207-9.516-2.207-0.956-3.507c0 0 0.966-6.33 2.551-6.646 1.583-0.318 6.646-3.164 6.646-3.164l-1.888-4.439 4.415-3.801h5.077l5.077 5.077 12.361 0.294 10.767-1.888 10.767-3.483 9.688-6.033 7.824-11.404h9.761l10.914-2.845 5.543-6.352v-6.646l-5.126-4.12-0.417-10.129-6.499-7.309-6.009-4.415-1.275-7.603-3.164-6.99c0 0-0.956-5.374-0.956-6.328 0-0.95 2.232-5.714 2.232-5.714l11.895-9.050c1.263-0.040 2.505-0.098 3.777-0.098 30.468 0 58.293 11.256 79.585 29.823-7.146-3.608-13.452-6.69-13.759-6.794-0.714-0.236-12.582-6.18-14.078-6.18s-5.396 2.379-5.396 2.379l7.039 4.733 7.603 6.671 5.077 11.159 2.134 3.581 3.335 1.422 10.448 19.007-2.379 7.137 3.090 4.513-5.69 8.069-7.603-1.177h-12.14l-9.957 10.693-2.158 9.025v8.093l1.913 14.961c0 0 6.889 10.234 9.173 11.184 2.283 0.951 3.894-0.011 2.943 2.036-0.951 2.049 0.484 4.848 3.335 7.652 0.783 0.77 1.834 1.534 3.017 2.281-0.090 1.575 0.825 4.492 0.294 6.082-0.714 2.133-2.846 0.237-5.101 0s-3.197 5.699-3.434 8.314c-0.242 2.612 2.593 1.894 3.703 2.845 1.107 0.951-0.619 2.378-1.57 6.18-0.951 3.805 1.661 1.668 4.145 1.668 2.485 0 3.697-1.668 7.26-1.668 3.565 0 1.418 2.152 1.815 5.003 0.394 2.852-0.382 3.099-4.66 4.047-4.276 0.953-3.343 1.421-2.869 2.134 0.477 0.714 4.28 2.616 7.529 3.090 3.248 0.477 1.039 4.029 2.943 7.358 1.136 1.989 2.549 2.346 4.66 1.864l-0.54 1.472-2.551 1.741-3.483 3.949 1.422 2.379c0 0-1.262 1.905-1.422 2.379-0.158 0.477-1.888-2.379-1.888-2.379s-4.122 3.006-4.439 3.483c-0.316 0.477-5.543 6.499-5.543 6.499l-0.441 8.952c-13.142 7.73-27.849 13.066-43.557 15.377-1.297-1.545-2.808-3.085-4.145-3.875-3.209-1.901-12.717-6.438-16.162-8.339-3.448-1.901-1.645-9.969-4.733-11.87-3.091-1.902-11.287 7.369-12.949 8.559-1.664 1.188 1.422 11.159 1.422 11.159s1.371 2.209 2.943 4.635zM271.18 332.633l7.603-0.956 4.905 0.956 4.758-5.371h-11.576l-5.69 5.371zM307.625 313.16h2.992c0.474 0 2.713-1.745 2.869-2.379 0.155-0.633 2.207-7.603 2.207-7.603s4.429-1.905 4.905-2.379c0.474-0.476 3.182-4.921 3.973-5.077 0.794-0.16 3.003-2.228 2.526-3.335-0.474-1.111-1.573-2.207-2.526-2.207-0.949 0-3.812-0.314-5.396 0-1.584 0.319-4.758 2.064-4.758 2.698 0 0.633 0.334 4.261 0.809 5.052 0.475 0.794-0.809 4.758-0.809 4.758s-4.746 2.074-4.905 2.551c-0.157 0.473-1.256 2.37-1.888 3.164s-1.424 3.334 0 4.758zM333.745 312.277l0.172-4.194 2.060-3.654 1.741-3.164-2.207-1.741 0.932-2.82c0.783-0.293 1.615-0.616 2.551-0.981 5.397-2.11 4.259-2.85 5.445-1.422 1.191 1.428-2.842 4.74-4.267 7.284-0.494 0.879-0.119 2.383 0.564 3.973-2.24 2.326-4.572 4.577-6.99 6.72zM307.454 303.963c1.423 0 3.004-0.151 3.483-0.785 0.474-0.633 0.482-0.637 1.275-2.379 0.794-1.744 3.334-0.789 0.956-3.164-2.377-2.378-1.441-3.024-2.232-4.292-0.791-1.27-2.857 0.008-4.12 1.275-1.257 1.267-1.412 3.489-1.57 4.439-0.16 0.951 0 1.741 0 1.741 0.79 1.901 0.78 3.164 2.207 3.164zM348.461 274.238c-1.051-0.023-1.813-0.582-2.109-1.324-0.477-1.188 1.428-3.821 2.379-5.248 0.951-1.424 8.093-9.957 8.093-9.957s-0.974-3.342-2.403-4.292c-1.423-0.951-1.412 4.519-1.888 5.469-0.474 0.951-9.031 13.085-9.982 11.184-0.95-1.901-4.994-1.918-8.559-2.158s-2.836-3.557-2.6-6.646c0.24-3.091-1.427-3.554-3.703-4.267-2.275-0.714-2.489-0.479-4.39-0.956-0.943-0.236-1.008-1.825-0.834-3.36 2.242 1.211 4.491 2.352 6.058 3.36 3.328 2.138 5.471 0 9.516 0 4.044 0 7.599-2.141 9.737-5.469 2.14-3.328 2.856-5.225 7.848-8.314 4.99-3.089 0.723-2.155 1.913-5.935 1.188-3.785 2.123 0.689 2.6 1.643 0.474 0.948 3.81 0.002 6.426-1.643 2.613-1.644 3.309-4.758 4.022-4.758 0.714 0-0.693 6.889-1.643 9.173-0.358 0.868 1.671 0.083 4.341-1.153-0.163 1.096-0.37 2.177-0.564 3.262-3.383 1.541-6.917 3.477-7.333 4.243-0.689 1.267 1.017 4.277 1.177 7.603 0.064 1.367 0.898 3.072 2.011 4.684-1.099 3.355-2.326 6.643-3.703 9.859-0.458-5.446-1.092-11.321-1.3-12.263-0.365-1.661-1.766-0.944-1.766-2.845 0-1.9-0.013-0.006 1.177-0.956 1.186-0.95 0.237-1.901 0-3.777s-1.175-0.739-2.6 0c-1.427 0.74-2.148 1.639-2.624 3.066s1.182 1.902 1.422 3.090c0.235 1.19-0.928 3.090-2.354 3.801-1.428 0.714 0.217 1.668-1.447 5.469-1.661 3.802-0.95 3.104-1.422 4.292-0.477 1.188-1.17 3.325-3.311 4.513-0.802 0.445-1.552 0.627-2.183 0.613zM342.379 267.224c0.085 0.002 0.166-0.005 0.245-0.024 1.268-0.317 1.901 0.014 2.060-1.57 0.157-1.584 1.268-3.82 0-4.611-1.268-0.794-2.221-1.578-2.698-0.785s0.134 2.589 0.785 3.36c0.651 0.767-1.576 2.669-2.526 2.036-0.966-0.645 0.858 1.573 2.134 1.594zM132.317 218.981c1.338-63.513 51.518-115.020 114.509-118.409l-19.866 10.889-7.603 8.559-5.052 8.854-6.99 14.593-12.655 6.965-11.429 11.723-7.284 18.37 5.077 1.594-2.207 6.328-8.241 1.275-6.352 4.439-7.284 4.758-5.077 3.483-5.69-1.594-5.076 5.714-4.439 10.472-1.275-5.396-3.066 7.383z" />
<glyph unicode="&#xe018;" d="M288.769 330.639l-4.716 0.588 3.536-3.34h7.172l-2.947 3.34zM307.831 314.23c0.099-0.295 3.046-1.572 3.046-1.572s0.786-2.456 0.492-2.949c-0.295-0.491-0.492-2.751-0.492-3.144s1.965-1.473 2.947-1.671c0.982-0.195 2.752 0 3.34 0 0.591 0 1.278 0.688 1.572 1.377 0.295 0.687-1.079 1.965-1.572 2.064-0.491 0.097-2.161 2.848-2.455 3.143-0.295 0.294-3.046 1.473-3.046 1.473s-1.279 4.323-1.375 4.716c-0.097 0.393-1.475 1.474-1.769 1.474s-1.867 0-1.867 0c-0.883-0.883-0.393-2.455 0-2.947s1.081-1.671 1.179-1.965zM306.154 307.647c0.783-0.786 2.070-1.573 2.56-0.786 0.491 0.786-0.099 1.179 1.375 2.653 1.475 1.473-0.097 0.883-0.589 1.965-0.492 1.080-0.492 1.080-0.786 1.473-0.297 0.393-1.279 0.492-2.161 0.492-0.885 0-0.885-0.786-1.375-1.965 0 0-0.099-0.492 0-1.081s0.197-1.965 0.976-2.751zM328.365 290.649c-0.786 0.196-2.112-1.409-1.473-0.982 0.589 0.393 1.965-0.786 1.561-1.262-0.404-0.478-0.777-1.586-0.482-2.078 0.296-0.492 0.885 0 1.671 0.492 0.786 0.49 0.097 1.865 0 2.848-0.099 0.982-0.492 0.786-1.278 0.982zM351.817 295.633c-4.307 10.18-10.47 19.323-18.317 27.17-7.848 7.846-16.99 14.010-27.172 18.317-10.545 4.461-21.742 6.722-33.279 6.722-11.535 0-22.732-2.262-33.28-6.722-10.18-4.307-19.321-10.471-27.169-18.317s-14.011-16.99-18.318-27.17c-4.46-10.546-6.721-21.744-6.721-33.281 0-11.536 2.261-22.733 6.722-33.28 4.307-10.18 10.47-19.323 18.317-27.17 7.848-7.849 16.989-14.012 27.17-18.317 10.547-4.461 21.744-6.723 33.28-6.723s22.733 2.262 33.28 6.723c10.182 4.305 19.322 10.468 27.171 18.317 7.847 7.847 14.010 16.989 18.317 27.17 4.46 10.546 6.722 21.744 6.722 33.28 0 11.537-2.262 22.734-6.723 33.281zM345.707 268.543c-0.442 0-0.884 1.94-2.505 2.96-1.622 1.020-3.685 1.608-3.979 1.020-0.295-0.591-0.885-3.367-1.622-1.020-0.738 2.344 1.916 1.756-1.179 3.672-3.096 1.916-3.537 3.094-4.864 5.158s-3.531 3.389-6.040 3.389c-2.508 0-3.834 1.326-5.898 0-0.972-0.625-2.369-1.329-3.76-2.080-0.108 0.952-0.068 1.933 0.517 2.080 1.179 0.296 1.304 0.147 2.715 0.589s2.445 0.736 2.296 2.653c-0.146 1.916-0.589 3.978 1.622 4.127s4.716 0.148 5.305 1.328c0.59 1.179 5.896-6.339 6.19-6.929 0.295-0.589 0.295-3.979 1.178-3.39 0.886 0.589 1.476 2.653 1.476 2.653s-4.422 5.305-5.011 6.188c-0.589 0.885-1.769 2.506-1.473 3.243 0.294 0.736 1.326 1.179 2.652 0.442 1.328-0.736 1.769-2.064 2.064-2.8 0.293-0.736-0.147-0.294 0.883-2.652 1.032-2.358 0-2.948 0.885-3.391 0.885-0.441 1.62-1.62 1.475-2.358-0.149-0.737-1.181-1.030-0.885-1.916s0.736-1.441 1.622-1.9c0.883-0.458 1.475-1.163 1.622 0s0.735 1.753 0 2.341c-0.738 0.589-0.738-0.589-0.738 0.589 0 1.179 0.874 0.738 1.1 1.769 0.129 0.584 0.514 4.225 0.798 7.603 0.854-1.995 1.614-4.039 2.296-6.119-0.691-1-1.206-2.061-1.245-2.908-0.099-2.062-1.151-3.93-0.724-4.716 0.258-0.475 2.441-1.666 4.539-2.622 0.121-0.673 0.247-1.342 0.347-2.021-1.656 0.767-2.913 1.243-2.691 0.704 0.589-1.416 1.475-5.689 1.032-5.689zM327.188 314.44c-0.423-0.986-0.652-1.92-0.346-2.466 0.884-1.577 3.39-3.639 2.651-4.524-0.735-0.885-0.040-0.423-3.387 0.885-0.581 0.226-1.094 0.424-1.579 0.606l-0.584 1.751 1.375 1.079-1.079 1.965-1.278 2.261-0.106 2.605c1.499-1.329 2.944-2.72 4.333-4.163zM197.942 260.744l1.909-4.583 0.786 3.354 2.752-6.498 3.144-3.537 3.537 0.982 3.144-2.161 4.52-2.947 3.93-2.752 5.109-0.786 1.375-3.93-3.145-0.983 4.52-11.397 7.073-7.27 7.862-4.322 4.323-9.040 3.144-5.502 4.716-5.307 12.305-6.746c-39.063 2.103-70.174 34.039-71.004 73.425zM273.049 187.203c-0.788 0-1.569 0.035-2.352 0.060l-7.375 5.624c0 0-1.375 2.947-1.375 3.536 0 0.591 0.589 3.931 0.589 3.931l1.965 4.322 0.786 4.716 3.733 2.751 4.029 4.521 0.253 6.287 3.187 2.555-9.389 4.128 5.951 3.93-6.781 1.769h-6.053l-4.853 7.073-5.994 3.735-6.681 2.162-6.681 1.179-7.663-0.196-3.144-3.144h-3.145l-2.752 2.358 1.179 2.751c0 0-3.145 1.769-4.127 1.965-0.983 0.196-1.572 4.128-1.572 4.128l0.589 2.174 5.894 1.363 2.752-1.363 4.127-1.39 4.519 1.39-2.751 1.559-6.091 0.393-3.733 0.883-4.52-1.473h-5.109l-0.787-4.325h-3.144v11.791l6.485 1.965 1.375 1.572 2.947-2.555 2.752-4.519h1.375l-1.18 2.162-0.982 7.27 2.359 4.521h3.145v6.486h2.751v2.553l2.161 3.144 3.341 0.984v1.865l2.553 1.868 3.046-1.868 1.867 2.654 4.421 1.867v1.769h-4.716l-0.197 4.519-1.769 1.572 2.948 0.885 6.681-0.885-2.359-1.375 1.278-2.849 1.965-0.099 2.751 0.492c0 0-0.589-1.377-0.589-1.671s2.063 0 2.063 0l-0.294 1.769 2.653 0.589-1.671 1.865-2.161 1.377-3.045 0.981-0.589 1.18 1.375 0.589 2.751-1.77 0.492 3.931-2.554 3.046-2.85 0.492 1.376 5.403-1.080 2.358-3.734-2.751h-2.063l1.375 2.949-0.589 0.687-1.375 1.865-1.572-2.553-1.18 1.572-4.028-4.422 0.196-2.948-3.931-4.519-2.751-2.161 0.195-5.895-2.357 3.93 0.786 3.144-3.538 1.572 0.599 5.823c7.045 6.199 15.252 11.104 24.265 14.333l-0.027-0.111-2.435-1.867c0 0-2.652-2.358-2.848-2.653-0.196-0.294-2.161-1.572-2.161-1.572l2.554-0.196 0.491-2.358h3.047l1.768 1.179 1.375 1.965v1.375l0.589 1.475 1.67-0.589c0 0 2.26 0 3.046 0s0 2.554 0 2.554l-0.653 2.784c2.967 0.772 6.011 1.345 9.109 1.749-0.974-1.505-1.826-2.864-1.826-2.864s-1.916-6.188-0.883-6.925c1.031-0.738 6.115-6.486 8.032-5.306s0.809 6.19 2.947 7.369c2.137 1.179 8.031 3.979 10.021 5.158 0.829 0.49 1.754 1.457 2.558 2.414 9.741-1.433 18.866-4.742 27.015-9.535l0.272-5.565c0 0 3.242-3.721 3.438-4.016 0.197-0.295 2.751-2.161 2.751-2.161s1.081 1.769 1.179 1.473c0.099-0.294 0.885-1.473 0.885-1.473l-0.885-1.475 2.163-2.455 1.571-1.081 0.348-0.914c-1.309 0.299-2.197 0.085-2.902-1.149-1.181-2.064 0.197-4.275-1.818-4.571-2.015-0.294-4.372-1.473-4.668-1.916-0.294-0.442-0.883-0.736 1.769-1.328 2.653-0.587 3.144-0.736 2.899-2.505-0.246-1.768 1.079-3.095-1.131-3.095s-2.961 1.034-4.501 1.034c-1.54 0-3.162 1.326-2.572-1.034 0.589-2.358 1.669-3.241 0.983-3.831-0.688-0.589-2.458-0.148-2.308-1.769 0.146-1.622 0.74-5.305 2.138-5.158s2.725 1.317 3.167-0.005c0.329-0.986-0.242-2.794-0.186-3.77-0.733-0.463-1.392-0.935-1.878-1.412-1.769-1.738-2.652-3.474-2.062-4.744 0.589-1.269-0.411-0.679-1.827-1.269s-5.691-6.927-5.691-6.927l-1.178-9.284v-5.011l1.327-5.601 6.182-6.632h7.525l4.716 0.736 3.537-5.010-1.916-2.8 1.475-4.422-6.487-11.791-2.061-0.885-1.328-2.211-3.144-6.927-4.722-4.126-4.366-2.947c0 0 2.418-1.475 3.346-1.475s8.296 3.685 8.739 3.832c0.19 0.064 4.094 1.983 8.525 4.22-13.203-11.514-30.455-18.503-49.349-18.503zM390.255 394.547h-234.41c-7.163 0-13.023-5.951-13.023-13.219v-237.951c0-7.271 5.86-13.219 13.023-13.219h234.41c7.163 0 13.023 5.949 13.023 13.219v237.951c0 7.268-5.86 13.219-13.023 13.219z" horiz-adv-x="362" />
<glyph unicode="&#xe019;" d="M415.5 321.543l-62.458 62.457-97.547-97.547-97.539 97.547-62.457-62.457 97.547-97.543-97.547-97.543 62.457-62.457 97.539 97.543 97.547-97.543 62.458 62.457-97.548 97.543z" horiz-adv-x="511" />
<glyph unicode="&#xe01a;" d="M496 288h-176v176c0 8.836-7.164 16-16 16h-96c-8.836 0-16-7.164-16-16v-176h-176c-8.836 0-16-7.164-16-16v-96c0-8.836 7.164-16 16-16h176v-176c0-8.836 7.164-16 16-16h96c8.836 0 16 7.164 16 16v176h176c8.836 0 16 7.164 16 16v96c0 8.836-7.164 16-16 16z" />
<glyph unicode="&#xe01b;" d="M112.237 139.232c-5.61 15.726-6.89 31.96-4.454 47.39l-22.361 27.333-37.045-12.96c-5.087-26.652-3.405-54.937 6.357-82.277 5.808-16.267 14.052-30.958 24.133-43.887l7.228 38.168 36.233 5.932c-4.061 6.225-7.481 13-10.091 20.301zM198.043 268.234c24.019 1.296 47.487-6.505 65.871-21.271l34.863 5.709 7.301 38.563c-0.82 0.705-1.682 1.365-2.526 2.054-1.288 1.161-2.502 2.58-3.494 4.906-3.486 8.166-5.069 17.271-4.233 26.718 0.516 5.845 1.936 11.398 4.086 16.55l-35.291 6.047-6.808 37.49c-10.985-15.754-18.163-34.474-19.976-54.938-0.131-1.509-0.214-3.010-0.279-4.503-18.112 4.078-37.053 5.033-56.019 2.388l29.475-25.38-12.97-34.333zM289.442 128.060c-10.442-20.63-28.235-37.554-51.311-46.47l-12.494-33.050 29.786-25.644c0.287 0.098 0.574 0.181 0.861 0.278 43.978 15.701 76.674 49.031 93.022 89.218l-36.585-12.788-23.279 28.456zM208.519 75.207c-24.020-1.288-47.48 6.513-65.872 21.271l-34.871-5.709-7.301-38.555c33.813-28.991 79.119-43.050 124.548-36.718l-29.481 25.38 12.977 34.331zM117.119 215.39c10.45 20.623 28.235 37.554 51.31 46.463l12.494 33.050-29.794 25.647c-0.279-0.103-0.573-0.181-0.853-0.283-43.985-15.693-76.675-49.038-93.023-89.217l36.585 12.797 23.281-28.457zM438.896 393l-38.917-7.067-5.291-30.813c8.835-10.875 13.625-25.051 12.289-40.070-0.517-5.845-1.928-11.398-4.086-16.546l35.298-6.045 6.81-37.497c10.984 15.758 18.162 34.469 19.974 54.937 2.772 31.257-7.4 60.723-26.077 83.101zM316.267 363.27c10.877 8.832 25.052 13.622 40.071 12.289 5.841-0.519 11.403-1.937 16.547-4.086l6.046 35.292 37.487 6.81c-15.749 10.986-34.469 18.158-54.936 19.975-31.246 2.777-60.721-7.404-83.090-26.074l7.063-38.921 30.812-5.285zM417.354 271.409l-30.812 5.284c-10.877-8.829-24.814-14.66-39.843-13.322-5.84 0.517-13.863 3.092-19.006 5.242l-7.227-38.168-36.233-5.923c4.061-6.234 7.489-13.010 10.090-20.311 5.61-15.726 6.891-31.959 4.454-47.389l22.361-27.333 37.045 12.961c3.938 20.646 3.79 42.271-1 63.688 25.266 1.263 48.694 10.878 67.24 26.349l-7.069 38.922z" horiz-adv-x="511" />
<glyph unicode="&#xe01c;" d="M415.815 221.031v-157.344h-320.632v320.625h157.351l-29.691 29.688h-157.344v-380h380.001v157.344zM445.5 414h-189.997l76.070-76.074-126.539-126.543 37.848-37.852 126.539 126.543 76.079-76.074z" horiz-adv-x="511" />
<glyph unicode="&#xe01d;" d="M382.777 330.071c0 11.667-9.544 21.213-21.211 21.213h-212.134c-11.666 0-21.212-9.546-21.212-21.213v-212.142c0-11.667 9.546-21.213 21.212-21.213h212.135c11.667 0 21.211 9.545 21.211 21.213l0.001 212.142zM444.281 434h-137.562c-11.668 0-21.214-9.546-21.214-21.213v-36.051h100.912c12 0 21.82-9.819 21.82-21.822l-0.001-100.914h36.045c11.667 0 21.214 9.547 21.214 21.214v137.573c0 11.667-9.547 21.213-21.214 21.213zM444.281 193.999h-36.045v-100.913c0-12.003-9.82-21.823-21.82-21.823h-100.911v-36.050c0-11.667 9.546-21.213 21.214-21.213h137.563c11.667 0 21.214 9.546 21.214 21.213l-0.001 137.572c0 11.668-9.547 21.214-21.214 21.214zM102.762 354.914c0 12.003 9.82 21.822 21.82 21.822h100.92v36.051c0 11.667-9.546 21.213-21.213 21.213h-137.571c-11.668 0-21.215-9.546-21.215-21.213v-137.572c0-11.667 9.547-21.214 21.215-21.214h36.044v100.913zM124.582 71.263c-12 0-21.82 9.82-21.82 21.823v100.913h-36.044c-11.668 0-21.215-9.546-21.215-21.214v-137.572c0-11.667 9.547-21.213 21.215-21.213h137.571c11.667 0 21.213 9.546 21.213 21.213v36.050h-100.92z" horiz-adv-x="511" />
<glyph unicode="&#xe01e;" d="M465.5 241.797h-420.001l306.174 154.674 26.029-51.524-89.91-45.435h177.708zM159.315 51.529l-26.029 51.513 89.91 45.42h-177.697v57.725h419.99z" horiz-adv-x="511" />
<glyph unicode="&#xe01f;" d="M305.293 480l-21.98-28.929c-8.978 1.075-18.040 1.616-27.313 1.616-13.157 0-26.075-1.097-38.626-3.232l-22.303 28.121c-30.932-7.416-59.765-20.326-85.334-37.657l5.172-36.040c-17.356-13.654-32.786-29.805-45.576-47.839l-35.717 4.202c-16.11-26.251-27.632-55.608-33.616-86.949l28.929-21.98c-1.070-8.973-1.616-18.045-1.616-27.313 0-12.95 1.164-25.619 3.232-37.98l-28.121-22.303c7.38-31.201 20.187-60.224 37.657-85.98l36.040 5.172c13.638-17.351 29.815-32.791 47.839-45.576l-4.202-35.717c26.256-16.125 55.608-27.617 86.949-33.616l21.98 28.929c8.978-1.070 18.045-1.616 27.313-1.616 13.152 0 26.080 1.097 38.626 3.232l22.303-28.121c30.932 7.416 59.791 20.326 85.334 37.657l-5.172 36.040c17.351 13.633 32.786 29.659 45.576 47.677l35.717-4.040c16.13 26.303 27.617 55.608 33.616 86.949l-28.929 21.98c1.070 8.978 1.616 18.040 1.616 27.313 0 13.157-1.102 26.075-3.232 38.626l27.959 22.303c-7.452 31.17-20.437 60.1-37.98 85.818l-35.878-5.171c-13.576 17.175-29.632 32.415-47.516 45.091l4.202 35.717c-26.267 16.12-55.614 27.617-86.949 33.616zM275.394 325.172c12.386-2.374 24.050-6.886 34.424-13.253l-1.616-14.222c7.044-5.001 13.238-10.998 18.586-17.778l14.384 2.101c6.919-10.152 12.087-21.625 15.030-33.939l-11.313-8.889c0.838-4.955 1.454-10.005 1.454-15.192 0-3.656-0.232-7.291-0.646-10.828l11.475-8.566c-2.364-12.371-7.043-24.050-13.414-34.424l-14.061 1.616c-5.042-7.096-11.108-13.369-17.939-18.747l1.939-14.384c-10.1-6.848-21.395-11.942-33.616-14.869l-8.889 11.151c-4.949-0.837-10.010-1.292-15.192-1.292-3.656 0-7.286 0.222-10.828 0.646l-8.566-11.475c-12.376 2.369-24.050 7.043-34.424 13.414l1.616 14.061c-7.106 5.042-13.374 11.102-18.747 17.939l-14.384-1.939c-6.899 10.173-11.957 21.605-14.869 33.939l11.151 8.728c-0.811 4.877-1.292 9.926-1.292 15.030 0 3.651 0.227 7.286 0.646 10.828l-11.475 8.566c2.364 12.381 6.892 24.055 13.253 34.424l14.222-1.616c5.042 7.111 11.102 13.364 17.939 18.747l-1.939 14.384c10.106 6.843 21.395 11.942 33.616 14.869l8.889-11.151c4.955 0.837 10 1.292 15.192 1.292 3.656 0 7.28-0.217 10.828-0.646l8.566 11.475z" />
<glyph unicode="&#xe020;" d="M48.295 294.591c0.957 0 14.666 0 14.666 0l4.066 7.146c1.42 2.161 2.568 4.526 3.764 6.622l7.254 12.788 26.943 47.438c4.303 7.561 10.984 13.74 19.68 13.74h261.662c8.697 0 15.379-6.179 19.68-13.74l42.027-73.993c0 0 14.266 0 14.666 0 8.066 0 11.156 6.194 6.854 13.768l-63.528 111.87c-4.303 7.575-10.992 13.77-19.699 13.77h-261.662c-8.715 0-15.395-6.195-19.697-13.77l-63.53-111.872c-4.302-7.573-1.22-13.767 6.854-13.767zM462.703 153.4c-0.4 0-14.666 0-14.666 0l-7.82-13.764h-0.008l-7.256-12.788-26.943-47.433c-4.301-7.565-10.982-13.745-19.68-13.745h-261.662c-8.695 0-15.377 6.179-19.68 13.745l-42.027 73.985c0 0-14.264 0-14.666 0-8.074 0-11.156-6.189-6.854-13.764l63.529-111.874c4.303-7.574 10.982-13.763 19.697-13.763h261.663c8.707 0 15.395 6.189 19.699 13.763l63.527 111.874c4.303 7.575 1.214 13.764-6.853 13.764zM121.25 272.958h-83.018c-2.533 0-4.611-2.074-4.611-4.612v-83.018c0-2.533 2.078-4.603 4.611-4.603h83.018c2.541 0 4.611 2.070 4.611 4.603v83.018c0 2.537-2.070 4.612-4.611 4.612zM238.418 272.958h-83.016c-2.533 0-4.613-2.074-4.613-4.612v-83.018c0-2.533 2.080-4.603 4.613-4.603h83.016c2.543 0 4.613 2.070 4.613 4.603v83.018c0 2.537-2.069 4.612-4.613 4.612zM355.596 272.958h-83.016c-2.535 0-4.611-2.074-4.611-4.612v-83.018c0-2.533 2.076-4.603 4.611-4.603h83.016c2.535 0 4.605 2.070 4.605 4.603v83.018c0.001 2.537-2.070 4.612-4.605 4.612zM472.767 272.958h-83.018c-2.541 0-4.611-2.074-4.611-4.612v-83.018c0-2.533 2.070-4.603 4.611-4.603h83.018c2.535 0 4.613 2.070 4.613 4.603v83.018c0 2.537-2.079 4.612-4.613 4.612z" horiz-adv-x="511" />
<glyph unicode="&#xe021;" d="M151.507 330.013c0 57.435 46.562 103.987 104 103.987 57.431 0 103.991-46.553 103.991-103.987s-46.561-103.994-103.991-103.994c-57.438 0-104 46.559-104 103.994zM422.507 166.423c-0.631 20.396-17.325 36.75-37.865 36.75h-258.269c-20.557 0-37.242-16.353-37.874-36.75h-0.065v-114.49c0-20.951 16.988-37.934 37.939-37.934h37.931v70.923h8.4v-70.922h165.59v70.923h8.4l0.001-70.923h37.947c20.95 0 37.923 16.983 37.923 37.934v114.49h-0.058z" horiz-adv-x="511" />
<glyph unicode="&#xe022;" d="M292.571-32l292.572 390.095h-585.143zM0 480h585.143v-48.762h-585.143z" horiz-adv-x="585" />
<glyph unicode="&#xe023;" d="M292.571 480l292.572-390.095h-585.143zM0 16.762h585.143v-48.762h-585.143z" horiz-adv-x="585" />
<glyph unicode="&#xe600;" d="M438.627 278.627l-160 160c-12.496 12.497-32.757 12.497-45.254 0l-160-160c-12.497-12.497-12.497-32.758 0-45.255 12.497-12.498 32.758-12.498 45.255 0l105.372 105.373v-306.745c0-17.673 14.327-32 32-32s32 14.327 32 32v306.745l105.373-105.373c6.248-6.248 14.438-9.372 22.627-9.372s16.379 3.124 22.627 9.373c12.497 12.497 12.497 32.757 0 45.254z" />
<glyph unicode="&#xe601;" d="M73.373 169.373l160-160c12.496-12.497 32.758-12.497 45.255 0l160 160c12.496 12.497 12.496 32.758 0 45.255-12.497 12.497-32.758 12.497-45.255 0l-105.373-105.373v306.745c0 17.673-14.327 32-32 32s-32-14.327-32-32v-306.745l-105.373 105.373c-6.248 6.248-14.438 9.372-22.627 9.372s-16.379-3.124-22.627-9.372c-12.497-12.497-12.497-32.758 0-45.255z" />
<glyph unicode="&#xe602;" d="M130.13 247.601v-47.201c0-4.344 3.523-7.867 7.867-7.867h236.007c4.344 0 7.867 3.522 7.867 7.867v47.202c0 4.345-3.522 7.867-7.867 7.867h-236.007c-4.345 0-7.867-3.522-7.867-7.867z" />
<glyph unicode="&#xe603;" d="M130.13 247.601v-47.201c0-4.344 3.523-7.867 7.867-7.867h236.007c4.344 0 7.867 3.522 7.867 7.867v47.202c0 4.345-3.522 7.867-7.867 7.867h-236.007c-4.345 0-7.867-3.522-7.867-7.867z" />
<glyph unicode="&#xe604;" d="M0 32h512v-32h-512zM512 96v-32h-512v32l64 128h128v-64h128v64h128zM112 320l144 144 144-144h-112v-128h-64v128z" />
<glyph unicode="&#xe605;" d="M368 480h-224c-26.4 0-48-21.6-48-48v-416c0-26.4 21.6-48 48-48h224c26.4 0 48 21.6 48 48v416c0 26.4-21.6 48-48 48zM192 456h128v-16h-128v16zM256 0c-17.673 0-32 14.327-32 32s14.327 32 32 32 32-14.327 32-32-14.327-32-32-32zM384 96h-256v320h256v-320z" />
<glyph unicode="&#xe606;" d="M253.309 33.86c0 36.73 29.447 66.177 65.86 66.177 36.73 0 66.177-29.447 66.177-66.177 0-36.413-29.447-65.86-66.177-65.86-36.413 0-65.86 29.447-65.86 65.86zM0 223.841c0 36.73 29.447 66.177 65.86 66.177 36.73 0 66.177-29.447 66.177-66.177 0-36.413-29.447-65.86-66.177-65.86-36.413 0-65.86 29.447-65.86 65.86zM253.309 413.823c0 36.73 29.447 66.177 65.86 66.177 36.73 0 66.177-29.447 66.177-66.177 0-36.413-29.447-65.86-66.177-65.86-36.413 0-65.86 29.447-65.86 65.86zM39.58 411.29h189.982v-31.663h-189.982v31.663zM166.234 221.308h189.982v-31.663h-189.982v31.663zM39.58 31.327h189.982v-31.663h-189.982v31.663z" horiz-adv-x="386" />
<glyph unicode="&#xe607;" d="M326.583 100.182c0 19.41 15.883 35.294 35.297 35.294h98.822c19.416 0 35.297-15.884 35.297-35.294v-70.59c0-19.41-15.881-35.294-35.297-35.294h-98.822c-19.414 0-35.297 15.884-35.297 35.294v70.59zM15.999 100.182c0 19.41 15.881 35.294 35.297 35.294h98.813c19.416 0 35.297-15.884 35.297-35.294v-70.59c0-19.41-15.881-35.294-35.297-35.294h-98.813c-19.416 0-35.297 15.884-35.297 35.294v70.59zM340.702 347.817c0-19.411-15.881-35.294-35.297-35.294h-98.822c-19.414 0-35.297 15.883-35.297 35.294v70.59c0 19.411 15.883 35.295 35.297 35.295h98.822c19.416 0 35.297-15.884 35.297-35.295v-70.59zM424.632 240.477h-147.463v48.516c0 3.891-3.17 7.059-7.051 7.059h-28.238c-3.881 0-7.059-3.168-7.059-7.059v-48.516h-147.459c-4.309 0-7.834-3.525-7.834-7.838v-73.631c0-3.891 3.18-7.060 7.055-7.060h28.238c3.881 0 7.059 3.169 7.059 7.060v46.172h268.238v-46.172c0-3.891 3.178-7.060 7.055-7.060h28.238c3.875 0 7.055 3.169 7.055 7.060v73.631c0 4.313-3.526 7.838-7.834 7.838z" />
<glyph unicode="&#xe608;" d="M256 414l-219.392-380h438.784l-219.392 380zM278.729 79.467h-45.466v45.464h45.466v-45.464zM233.263 166.144v122.98h45.466v-122.979h-45.466z" />
<glyph unicode="&#xe609;" d="M255.993 434c-101.732 0-184.201-28.035-184.201-62.631v-294.741c0-34.593 82.469-62.627 184.201-62.627 101.76 0 184.215 28.034 184.215 62.627v294.741c0 34.596-82.455 62.631-184.215 62.631zM255.993 413.054c81.43 0 147.423-17.297 147.423-38.623 0-21.321-65.994-38.62-147.423-38.62-81.402 0-147.41 17.298-147.41 38.62 0 21.326 66.008 38.623 147.41 38.623zM406.698 97.729c0-28.291-67.457-51.238-150.705-51.238-83.234 0-150.691 22.948-150.691 51.238v237.635c33.318-16.092 88.389-26.626 150.691-26.626 62.34 0 117.387 10.534 150.705 26.626v-237.635z" />
<glyph unicode="&#xe60a;" d="M402.261 264.22c0.476 3.871 0.723 7.812 0.723 11.807 0 52.553-42.599 95.147-95.148 95.147-42.27 0-78.101-27.574-90.505-65.717-10.359 5.149-22.033 8.047-34.396 8.047-42.344 0-76.749-33.971-77.47-76.146-35.094-13.264-59.465-42.513-59.465-76.477 0-46.423 45.56-84.055 101.769-84.055 41.548 0 152.931 0 197.678 0 66.576 0 120.554 44.58 120.554 99.563-0.001 38.026-25.816 71.064-63.74 87.831z" />
<glyph unicode="&#xe60b;" d="M496 170.888h-0.055c-0.588 19.083-16.216 34.39-35.443 34.39h-241.695c-19.23 0-34.847-15.306-35.442-34.39l-0.060-107.141c0-19.608 15.896-35.502 35.502-35.502h35.502v66.372h13.772v-66.372h143.147v66.372h13.773v-66.372h35.5c19.608 0 35.498 15.894 35.498 35.502v107.141zM166.645 135.589h-126.683v207.934h187.381c1.573 9.065 4.203 17.765 7.786 25.964h-188.691c-16.749 0-30.438-13.697-30.438-30.425v-201.591c0-16.736 13.689-30.417 30.438-30.417h120.194l0.013 28.535zM166.604 63.755l0.016 37.245h-10.491v-51.679h-20.392c-5.888 0-10.714-4.822-10.714-10.718v-11.899h57.045c-9.541 9.466-15.464 22.583-15.464 37.051zM339.656 421.296c-53.751 0-97.325-43.566-97.325-97.317 0-53.755 43.574-97.313 97.325-97.313 53.748 0 97.325 43.558 97.325 97.313 0 53.751-43.577 97.317-97.325 97.317zM288.837 221.982c-31.573 15.794-54.836 45.779-61.343 81.579v-81.579h61.343zM61.708 323.458h146.146v-44.311h-146.146v44.311zM61.708 262.443v-111.23h104.856l0.020 36.379c0.597 19.084 16.212 34.39 35.442 34.39h5.828v40.461h-146.146z" />
<glyph unicode="&#xe60c;" d="M482.116 422.077h-350.523c-16.453 0-29.908-13.458-29.908-29.898v-198.098c0-16.444 13.456-29.893 29.908-29.893h350.523c16.437 0 29.884 13.449 29.884 29.893v198.098c0 16.441-13.448 29.898-29.884 29.898zM306.842 404.216c-2.901 0-5.257 2.352-5.257 5.257 0 2.913 2.356 5.265 5.257 5.265 2.917 0 5.266-2.352 5.266-5.265-0.001-2.905-2.349-5.257-5.266-5.257zM125.229 396.564h363.281v-204.33h-363.281v204.33zM146.603 376.846h143.61v-169.26h-143.61v169.26zM306.842 261.265h71.806v-53.682h-71.806v53.682zM397.456 376.846h71.805v-169.253h-71.805v169.253zM306.842 376.843h71.806v-93.681h-71.806v93.681zM395.332 113.358h-50.199v19.248c0 5.787-4.736 10.531-10.522 10.531h-55.529c-5.786 0-10.53-4.744-10.53-10.531v-19.248h-50.192c-5.786 0-10.522-4.739-10.522-10.53v-17.589c0 0 4.736 0 10.522 0h176.972c5.787 0 10.531 0 10.531 0v17.589c0 5.791-4.745 10.53-10.531 10.53zM0 88.914c0 0 45.804 19.436 48.833 64.376 1.002 14.887 2.508 12.078 11.236 29.811 8.615 17.53 16.412 32.847 40.598 26.792 5.466-1.365 14.049-4.542 14.049-4.542s73.801 66.141 85.894 75.44c4.544 3.487 11.604 3.036 15.074-0.748 3.63-3.993 3.494-11.512 0.345-14.842-9.336-9.905-61.98-63.294-61.98-63.294s13.96 0.902 19.442-6.922c4.544-6.479-1.146-19.295-1.146-19.295s8.976-0.896 11.953-8.787c2.472-6.588-1.728-16.414-4.516-19.823 0 0 7.777-6.141 7.974-13.235 0.176-6.468-6.892-21.436-22.472-31.976-15.579-10.53-23.689-16.511-41.584-21.706-17.767-5.152-20.492-6.141-26.286-10.741-6.042-4.79-41.087-43.5-41.087-43.5l-56.327 62.992zM206.996 308.397c-20.275 0-36.776-16.495-36.776-36.774 0-1.776 0.176-3.505 0.417-5.216 2.604 2.279 5.097 4.448 7.445 6.496 0.681 15.383 13.368 27.697 28.915 27.697 15.98 0 28.971-12.994 28.971-28.976s-12.991-28.973-28.971-28.973c-0.216 0-0.433 0.028-0.649 0.028-2.204-2.25-4.513-4.617-6.884-7.044 2.433-0.509 4.945-0.779 7.533-0.779 20.275 0 36.768 16.492 36.768 36.768-0.001 20.278-16.494 36.773-36.769 36.773zM206.996 328.522c-31.383 0-56.899-25.527-56.899-56.899 0-7.063 1.298-13.825 3.67-20.075 2.115 1.878 4.223 3.744 6.315 5.586-1.418 4.581-2.188 9.445-2.188 14.488 0 27.073 22.022 49.099 49.102 49.099 27.079 0 49.102-22.026 49.102-49.099s-22.022-49.098-49.102-49.098c-6.074 0-11.869 1.158-17.246 3.187-2.003-2.047-3.991-4.071-5.922-6.036 7.084-3.172 14.922-4.948 23.168-4.948 31.375 0 56.899 25.521 56.899 56.895s-25.524 56.9-56.899 56.9z" />
<glyph unicode="&#xe60d;" d="M470.32 480h-445.495c-13.665 0-24.826-11.388-24.826-25.509v-460.755c0-14.121 11.16-25.736 24.826-25.736h445.495c13.666 0 24.598 11.615 24.598 25.736v460.755c0 14.121-10.933 25.509-24.598 25.509zM419.303 419.872v-391.516h-99.075v391.516h99.075zM174.69 419.872v-391.516h-98.847v391.516h98.847zM222.748 340.612h49.423v-232.996h-49.423v232.996z" horiz-adv-x="495" />
<glyph unicode="&#xe60e;" d="M80.427 353.28c0 69.974 59.52 126.72 132.906 126.72s132.694-56.746 132.694-126.72-59.306-126.72-132.694-126.72-132.906 56.747-132.906 126.72zM426.666 153.813c-0.853 24.96-22.187 44.8-48.426 44.8h-329.813c-26.24 0-47.574-19.84-48.426-44.8v-139.52c0-25.6 21.76-46.293 48.426-46.293h12.8v86.4h46.294v-86.4h211.627v86.4h46.080v-86.4h13.014c26.666 0 48.426 20.693 48.426 46.293v139.52z" horiz-adv-x="427" />
<glyph unicode="&#xe60f;" d="M0 480h128v-128h-128v128zM0 288h128v-128h-128v128zM0 96h128v-128h-128v128zM224 288l96-32-91.84-91.84zM384 448h32v-480h-32v480zM384 480h128v-32h-128v32zM480 448h32v-440h-32v440zM384 0h128v-31.040h-128v31.040z" />
<glyph unicode="&#xe610;" d="M288 288l96-32-91.84-91.84zM224 288l-96-32 92.16-91.84zM384 448h32v-480h-32v480zM384 480h128v-32h-128v32zM480 448h32v-440h-32v440zM384 0h128v-31.040h-128v31.040zM0 448h32v-480h-32v480zM0 480h128v-32h-128v32zM96 448h32v-440h-32v440zM0 0h128v-31.040h-128v31.040zM192 448h32v-480h-32v480zM192 480h128v-32h-128v32zM288 448h32v-440h-32v440zM192 0h128v-31.040h-128v31.040z" />
<glyph unicode="&#xe611;" d="M296.32 64v101.76h-100.48v116.48h100.48v101.76h115.2v-101.76h100.48v-116.48h-100.48v-101.76zM0 480h128v-128h-128v128zM0 288h128v-128h-128v128zM0 96h128v-128h-128v128z" />
<glyph unicode="&#xe612;" d="M296.32 64v101.76h-100.48v116.48h100.48v101.76h115.2v-101.76h100.48v-116.48h-100.48v-101.76zM0 448h32v-480h-32v480zM0 480h128v-32h-128v32zM96 448h32v-440h-32v440zM0 0h128v-31.040h-128v31.040z" />
<glyph unicode="&#xe613;" d="M384.64 421.76h-78.080l64 58.24h-197.12l-64-58.24h-78.080l-31.36-55.040h416l-31.36 55.040zM203.84 450.88h136.32l-64-29.12h-136.32l64 29.12zM31.36 345.6l31.36-377.6h290.56l31.36 377.6h-353.28zM119.040 7.68l-31.68 279.68h21.12l31.36-279.68h-20.8zM221.12 7.68h-21.12v279.68h21.12v-279.68zM307.52 7.68h-20.8l20.8 279.68h21.12l-21.12-279.68z" horiz-adv-x="416" />
<glyph unicode="&#xe614;" d="M256-32c141.385 0 256 114.615 256 256s-114.615 256-256 256-256-114.615-256-256 114.615-256 256-256zM256 432c114.875 0 208-93.125 208-208s-93.125-208-208-208-208 93.125-208 208 93.125 208 208 208zM352.049 89.63c-19.587 32.574-55.272 54.37-96.049 54.37s-76.462-21.796-96.049-54.37l-41.164 24.698c27.98 46.535 78.958 77.672 137.213 77.672s109.232-31.137 137.213-77.672l-41.164-24.698zM383.521 339.88c2.142-8.572-3.070-17.259-11.641-19.402-8.813-2.225-19.261-6.060-28.468-10.675 5.324-5.715 8.587-13.376 8.587-21.803 0-17.673-14.327-32-32-32s-32 14.327-32 32c0 0.585 0.018 1.165 0.049 1.742 1.016 23.727 22.606 39.473 40.796 48.569 17.371 8.685 34.551 13.030 35.274 13.211 8.573 2.144 17.259-3.069 19.403-11.642zM128.479 339.88c2.144 8.573 10.83 13.786 19.403 11.642 0.723-0.181 17.903-4.526 35.274-13.211 18.19-9.096 39.78-24.842 40.796-48.569 0.031-0.577 0.049-1.157 0.049-1.742 0-17.673-14.327-32-32-32s-32 14.327-32 32c0 8.427 3.263 16.088 8.587 21.803-9.207 4.615-19.655 8.45-28.468 10.675-8.571 2.143-13.783 10.83-11.641 19.402z" />
<glyph unicode="&#xe615;" d="M256-32c141.385 0 256 114.615 256 256s-114.615 256-256 256-256-114.615-256-256 114.615-256 256-256zM256 432c114.875 0 208-93.125 208-208s-93.125-208-208-208-208 93.125-208 208 93.125 208 208 208zM256 180.62c57.975 0 113.115 15.403 160 42.46-7.287-89.219-76.564-159.080-160-159.080-83.434 0-152.711 69.936-160 159.152 46.885-27.056 102.025-42.532 160-42.532zM128 304c0 26.51 14.327 48 32 48s32-21.49 32-48c0-26.51-14.327-48-32-48s-32 21.49-32 48zM320 304c0 26.51 14.327 48 32 48s32-21.49 32-48c0-26.51-14.327-48-32-48s-32 21.49-32 48z" />
<glyph unicode="&#xe616;" d="M231.871 480c0 0 17.365-29.44 13.91-49.11-3.499-19.712-7.51-33.11-47.489-69.036-39.98-35.883-53.846-48.043-53.846-70.657 0-28.374 43.435-81.068 43.435-81.068s-70.572 43.392-70.572 93.185c0 33.622 40.321 53.334 64.427 74.199 24.065 20.821 44.332 37.632 48.982 60.203 4.65 22.613 1.152 42.284 1.152 42.284zM292.118 379.817c0 0-80.513-46.337-80.513-79.874 0-24.363 28.971-35.371 27.819-58.54s-28.374-43.436-41.132-46.934c0 0 15.061 13.909 15.061 28.971 0 27.222-36.268 51.585-32.768 74.113 4.394 27.819 32.683 46.251 50.731 57.942 21.419 13.909 60.801 24.32 60.801 24.32zM295.19 204.923c1.365-1.365 7.339 4.224 18.731 3.456 7.552-0.512 27.435-6.741 27.819-30.891s-29.568-42.284-35.712-46.337c-6.187-4.053-22.613-10.795-20.693-11.947 1.962-1.195 28.033 6.955 37.291 11.392s40.534 22.017 40.32 48.257c-0.171 26.24-26.24 40.918-52.097 34.56-11.136-2.731-15.659-8.491-15.659-8.491zM125.331 210.129c0.555-1.152-16.085-2.176-35.585-11.648-16.001-7.765-5.291-13.269 3.413-16.469 32.726-11.861 114.22-11.861 192.046 9.984-22.613-18.347-79.020-34.56-138.839-34.56-49.835 0-105.431 12.715-105.431 28.459 0 9.728 18.817 13.952 32.641 17.835 16.597 4.608 50.987 7.936 51.755 6.4zM108.136 153.637c0 0-14.251-13.696 4.266-19.755 45.142-14.805 111.575-6.187 133.848 7.894 0 0 12.288-10.155 21.846-13.014 0 0-45.697-27.435-110.167-23.083-50.006 3.37-78.636 12.075-78.636 30.294 0 14.891 28.843 17.664 28.843 17.664zM116.029 100.943c0 0-21.974-1.75-21.974-16.512 0-11.563 22.571-30.080 79.617-28.673 57.047 1.45 88.919 21.462 88.919 21.462s-22.613 8.107-28.416 14.763c0 0-20.053-17.579-63.531-16.427-25.174 0.683-67.329 6.87-54.614 25.387zM76.477 63.609c0 0-45.185-7.894-44.416-21.632 0.554-9.728 55.084-21.291 146.264-20.865 84.268 0.384 159.534 9.301 154.114 38.998 0 0 16.086-9.643 5.803-22.017-14.166-16.981-65.495-37.078-176.814-36.31s-162.563 18.176-161.411 35.926c1.152 17.793 54.444 31.659 76.46 25.899zM360.045 29.774c0 0-35.969-30.891-129.922-41.472-55.169-6.229-107.692-4.224-167.726 12.16 16.897-20.651 78.806-39.638 164.269-29.782 116.61 13.397 128.77 47.916 133.378 59.094z" horiz-adv-x="363" />
<glyph unicode="&#xe617;" d="M553.423 270.642h-73.409c4.142 9.003 7.923 19.268 10.805 29.472h58.283c-1.861-9.064-0.24-19.988 4.322-29.472zM541.117 257.616l-24.069-15.846-25.15 15.907 49.22-0.060zM434.214 340.99l7.563-2.821c1.26-0.48 2.701 0.18 3.182 1.441 0.36 0.9 8.404 21.488 27.611 21.488 3.661 0 6.063-1.381 7.923-4.622 4.442-7.683 4.502-23.769 0.18-43.337h-34.574c-1.38 0-2.521-1.081-2.521-2.461v-8.043c0-1.381 1.14-2.521 2.521-2.521h31.212c-3.661-12.065-8.404-23.589-13.625-32.773l-1.921-3.302c-0.661-1.14-0.24-2.641 0.841-3.361l42.557-26.771-22.569-14.826c-0.54-0.36-0.961-0.961-1.080-1.56-0.12-0.661 0-1.32 0.36-1.921l4.442-6.663c0.721-1.14 2.281-1.5 3.421-0.721l27.491 18.067 29.712-19.388c0.42-0.24 0.9-0.42 1.38-0.42l0.54 0.060c0.6 0.18 1.201 0.54 1.561 1.14l4.261 6.783c0.36 0.54 0.48 1.26 0.3 1.861-0.12 0.661-0.54 1.26-1.081 1.56l-25.51 15.786 41.957 27.191c0.42 0.3 0.78 0.72 0.961 1.2 0.3 0.781 0.24 1.68-0.24 2.401-8.943 13.145-11.585 23.95-8.703 35.654l36.074 0.060c1.38 0 2.521 1.080 2.521 2.461l0.060 7.983c0 0.661-0.24 1.321-0.721 1.8s-1.081 0.72-1.74 0.72h-31.212c6.063 12.965 15.186 23.889 43.877 23.889 1.38 0 2.521 1.081 2.521 2.521v7.983c0 1.38-1.14 2.521-2.521 2.521-30.252 0-48.679-11.764-57.864-36.915h-59.364c2.881 13.986 5.582 36.375-2.281 49.88-4.202 7.263-10.805 11.044-19.147 11.044-28.332 0-39.316-28.631-39.796-29.832-0.48-1.32 0.18-2.761 1.44-3.241zM64.526-1.027h-43.218c11.465 22.689 48.379 80.493 104.862 141.477 6.903-8.404 14.526-16.927 22.689-25.45-22.689-7.563-42.377-20.949-57.203-38.836-18.308-22.089-28.572-51.44-27.131-77.191zM426.111 391.77c0.48-0.24 1.080-0.24 1.62-0.12 20.649 5.942 45.078 9.844 70.649 11.345l20.708-45.438c0.48-0.961 1.441-1.561 2.461-1.501 1.081 0.12 1.921 0.841 2.221 1.8l13.206 45.619c26.051-1.021 50.721-4.502 71.549-10.264 0.721-0.18 1.5-0.060 2.101 0.42 20.048 14.526 29.352 35.835 34.454 53.722 3.302-24.61 3.241-60.565 3.241-68.548v-0.48c0.36-19.568-1.14-38.955-4.502-57.683l-23.23-9.844c-1.020-0.48-1.62-1.5-1.5-2.641 0.12-1.081 1.020-1.981 2.101-2.161l18.908-2.821c-1.5-6.002-3.121-11.764-4.862-17.227l-19.568-5.702c-1.081-0.3-1.801-1.26-1.801-2.341-0.060-1.080 0.6-2.041 1.62-2.401l14.226-5.162c-2.401-6.183-4.982-12.245-7.743-18.007h-32.833c-1.38 0-2.521-1.141-2.521-2.521v-8.883c0-1.381 1.14-2.521 2.521-2.521h25.691c-1.321-2.401-2.761-4.922-4.322-7.443h-21.369c-1.38 0-2.521-1.141-2.521-2.521v-8.883c0-1.38 1.14-2.521 2.521-2.521h12.485c-21.489-31.272-49.82-57.563-82.293-76.351-34.754 17.527-63.865 43.218-86.735 76.351h8.344c1.38 0 2.521 1.14 2.521 2.521v8.883c0 1.381-1.14 2.521-2.521 2.521h-17.347c-1.5 2.461-2.941 4.922-4.322 7.443h21.668c1.38 0 2.521 1.141 2.521 2.521v8.883c0 1.381-1.14 2.521-2.521 2.521h-28.931c-4.442 9.123-8.524 18.667-12.065 28.452l12.965 3.601c1.021 0.3 1.74 1.2 1.8 2.281s-0.54 2.041-1.56 2.461l-18.488 7.383c-1.62 5.282-3.001 10.264-4.262 15.126l27.251 1.861c1.080 0.060 2.041 0.841 2.221 1.921 0.24 1.080-0.24 2.221-1.26 2.761l-33.433 17.707c-6.903 38.835-7.023 79.112-0.48 112.665 7.383-30.432 20.108-47.659 41.416-56.783zM262.786 181.566l-11.945 3.241c-0.661 0.18-1.321 0.12-1.921-0.24-0.54-0.3-0.96-0.841-1.141-1.5-6.063-22.389-9.484-43.098-10.084-61.585-12.905 0.781-25.81 1.2-38.475 1.2-10.744 0-21.189-0.901-31.093-2.761-11.044 11.104-21.129 22.269-30.012 33.193 15.066 15.426 32.893 30.913 53.061 45.918l27.491-18.967c0.42-0.3 1.020-0.54 1.44-0.42 1.44 0.060 2.521 1.080 2.521 2.461 0 0.48-0.12 0.961-0.36 1.32l-8.763 31.332c7.923 5.342 16.087 10.504 24.31 15.486l41.657-21.188c0.42-0.18 0.781-0.3 1.2-0.3 1.38 0.12 2.581 1.14 2.581 2.521 0 0.721-0.3 1.32-0.781 1.8l-18.548 31.933c4.802 2.581 9.544 5.042 14.106 7.323l58.764-39.376c0.42-0.3 0.961-0.42 1.44-0.42 1.38-0.12 2.581 1.080 2.581 2.461 0 0.54-0.18 1.021-0.48 1.44l-18.728 55.463c19.268 7.623 37.995 13.805 55.822 18.367 4.022-13.025 8.943-25.75 14.646-37.935h-23.289c-1.38 0-2.521-1.141-2.521-2.521v-8.883c0-1.381 1.14-2.521 2.521-2.521h30.192c1.38-2.581 2.761-5.042 4.142-7.443h-34.334c-1.38 0-2.521-1.141-2.521-2.521v-8.884c0-1.38 1.14-2.521 2.521-2.521h42.797c25.51-39.135 60.925-72.209 105.283-98.32 0.78-0.48 1.74-0.48 2.521 0 3.841 2.161 7.803 4.562 11.945 7.263l8.163-8.764-17.227-26.471c-0.6-0.901-0.54-2.101 0.18-2.941 0.78-0.901 1.981-1.14 2.941-0.661l29.532 13.445 14.886-16.026-28.271-21.608c-0.961-0.721-1.26-1.981-0.721-3.061s1.74-1.62 2.881-1.32l40.516 10.504 55.582-59.844c0.54-0.6 1.26-0.841 2.041-0.841l4.802 0.42c28.991 2.581 45.379-13.325 49.52-17.887 1.801-2.101 3.182-3.962 4.141-5.582h-56.003c-120.228 62.665-250.541 122.329-389.317 134.814 0.54 17.287 3.721 36.855 9.544 58.344 0.36 1.38-0.42 2.701-1.74 3.061zM709.066 2.514c-15.306 17.107-43.758 22.989-63.145 22.689-15.726 18.428-86.795 93.397-101.861 109.364 30.972 22.149 56.903 49.88 77.131 82.473h40.096c1.38 0 2.461 1.14 2.461 2.521v8.883c0 1.381-1.081 2.521-2.461 2.521h-31.993c1.26 2.341 2.581 4.802 3.902 7.443h28.091c1.38 0 2.461 1.141 2.461 2.521v8.883c0 1.381-1.081 2.521-2.461 2.521h-21.428c18.607 41.536 27.611 86.735 26.831 134.574 0.12 0.3 0.18 0.6 0.18 0.9 0 0.24-0.060 0.48-0.12 0.721-0.18 14.226-4.382 72.689-12.605 89.496-0.6 1.141-1.921 1.681-3.121 1.201-19.688-7.443-59.904-32.954-70.708-61.645-18.788 2.701-38.596 4.021-59.004 4.021-23.95 0-48.32-1.921-70.529-5.642-9.003 30.913-47.419 53.182-69.868 63.805-1.14 0.54-2.521 0.12-3.182-0.96-11.584-19.568-16.567-63.266-15.366-94.898-0.060-0.24-0.12-0.54-0.12-0.84 1.021-26.651 4.562-52.221 10.504-76.051-85.894-21.909-186.075-78.871-245.559-139.676-21.368 29.412-34.034 57.383-37.635 83.194-3.841 27.191 2.641 52.101 18.727 72.029 16.207 20.168 38.296 29.952 67.587 29.952 8.584 0 17.767-0.78 28.031-2.461-0.36-5.822 0.72-11.044 3.061-14.466 7.083-10.504 31.213-15.186 51.981-15.186 17.647 0 34.274 3.061 46.759 8.643 0.721 0.3 1.2 0.901 1.38 1.681 0.24 0.72 0.060 1.44-0.36 2.041-20.769 29.172-59.904 45.318-78.992 45.318-3.661 0-6.662-0.6-8.883-1.68-4.082-1.981-7.623-5.462-10.264-10.144-14.166 2.461-25.45 3.721-33.554 3.721h-0.54c-34.094-0.24-60.204-12.185-79.772-36.495-19.147-23.769-26.891-53.302-22.389-85.355 4.141-29.472 18.547-60.924 42.737-93.518-3.602-3.841-7.083-7.683-10.444-11.464-57.743-64.646-104.622-138.716-104.622-152.881v-6.183c0-1.38 1.141-2.521 2.521-2.521h79.292c1.38 0 2.521 1.14 2.521 2.521 0 0.42-0.060 0.781-0.24 1.14l-1.26 6.663c-4.382 22.929 4.382 51.681 22.209 73.23 10.144 12.245 28.392 28.332 57.743 35.834 26.171-25.45 59.844-52.822 97.419-79.292 0.42-0.3 0.901-0.48 1.44-0.48h58.824c1.38 0 2.521 1.14 2.521 2.461v6.243c0 7.803-3.841 14.706-10.865 19.268-5.702 3.721-13.086 5.702-21.308 5.702-5.342 0-10.865-0.901-16.147-2.461-10.925 12.785-17.407 29.652-19.208 50.3 135.595-12.725 264.646-72.089 384.034-134.454 0.36-0.18 0.78-0.24 1.14-0.24h75.87c1.201 0 2.221 0.841 2.461 1.981l1.020 4.982c1.561 7.863-2.521 18.127-10.924 27.551z" horiz-adv-x="721" />
<glyph unicode="&#xe618;" d="M220.48 397.248c-69.056-14.144-123.52-68.672-137.664-137.664 23.552 15.808 62.4 26.624 105.536 32.128 5.504 43.136 16.32 81.92 32.128 105.536zM206.4 273.664c-1.472-15.36-2.24-31.936-2.24-49.664 0-17.664 0.768-34.24 2.24-49.664 15.36-1.408 31.936-2.176 49.6-2.176 17.728 0 34.304 0.768 49.664 2.176 1.408 15.424 2.24 32 2.24 49.664 0 17.728-0.832 34.304-2.24 49.664-15.36 1.408-31.936 2.24-49.664 2.24-17.664 0-34.24-0.832-49.6-2.24zM186.176 176.64c-1.408 15.68-2.112 31.616-2.112 47.36 0 15.808 0.704 31.744 2.112 47.36-67.584-9.216-106.944-30.784-106.944-47.36s39.36-38.144 106.944-47.36zM432.832 224c0 16.576-39.424 38.144-106.944 47.36 1.408-15.616 2.112-31.552 2.112-47.36 0-15.744-0.704-31.68-2.112-47.36 67.52 9.28 106.944 30.784 106.944 47.36zM429.248 259.584c-14.144 68.992-68.672 123.52-137.664 137.664 15.808-23.616 26.624-62.4 32.128-105.536 43.136-5.504 81.92-16.32 105.536-32.128zM256 296c15.808 0 31.744-0.768 47.36-2.112-9.216 67.52-30.784 106.944-47.36 106.944-16.512 0-38.080-39.424-47.296-106.944 15.616 1.344 31.552 2.112 47.296 2.112zM82.816 188.48c14.144-69.056 68.608-123.52 137.664-137.664-15.808 23.552-26.624 62.4-32.128 105.536-43.136 5.504-81.984 16.32-105.536 32.128zM291.584 50.816c68.992 14.144 123.52 68.608 137.664 137.664-23.616-15.808-62.4-26.624-105.536-32.128-5.504-43.136-16.32-81.984-32.128-105.536zM256 152.064c-15.744 0-31.68 0.704-47.296 2.048 9.216-67.52 30.784-106.88 47.296-106.88 16.576 0 38.144 39.36 47.36 106.88-15.616-1.344-31.552-2.048-47.36-2.048zM256 27.136c-108.544 0-196.864 88.32-196.864 196.864 0 108.608 88.32 196.928 196.864 196.928 108.608 0 196.928-88.32 196.928-196.928 0-108.544-88.32-196.864-196.928-196.864zM256 454.336c-127.168 0-230.336-103.104-230.336-230.336 0-127.168 103.168-230.336 230.336-230.336 127.232 0 230.4 103.168 230.4 230.336 0 127.232-103.168 230.336-230.4 230.336zM256 466.624c-133.76 0-242.624-108.8-242.624-242.624 0-133.76 108.864-242.624 242.624-242.624 133.824 0 242.624 108.864 242.624 242.624 0 133.824-108.8 242.624-242.624 242.624zM256-32c-141.12 0-256 114.88-256 256 0 141.184 114.88 256 256 256 141.184 0 256-114.816 256-256 0-141.12-114.816-256-256-256z" />
<glyph unicode="&#xe619;" d="M65.491 83.214c3.773 1.858 6.476-0.225 8.672-0.057l-2.196-2.591c-2.084-0.45-4.956 0-7.433 2.084l0.957 0.563zM74.557 86.931c0.112 0.338 0.281 0.507 0.507 0.62 0.675 0.338 1.576-0.338 2.478-0.507l-1.52-1.69c-0.957 0.338-1.746 1.014-1.464 1.577zM89.536 74.092l-0.056-0.225c1.183-4.449 3.266-8.615 3.266-13.346-1.464 2.703-4.674 6.87-6.476 9.911l3.266 3.661zM9.235 82.144c-0.507 0.225-1.521 0.788-1.859 0.62-0.112-0.057-0.112-0.113-0.112-0.281 0.169-2.872 12.614-10.192 19.991-10.981 3.154-0.45 6.588-0.394 12.332-0.281-2.872-3.491-5.631-6.926-6.645-11.262 6.814 5.969 12.839 9.854 17.963 12.389 8.447 4.167 14.585 4.73 18.245 4.843-56.255-67.236-69.151-109.189-69.151-109.189s39.362 49.555 83.229 99.053c0.62-15.43-5.463-17.907-6.138-33.281-0.338-7.096 3.716-20.329 11.263-22.412 0.957-0.281 1.689-0.338 2.14-0.113 0.507 0.225 0.507 0.957-0.112 2.196-6.814 13.233-3.829 19.596-1.971 22.187 2.478-0.62 2.478-5.125 4.111-8.954 1.689-3.773 8.559-16.781 18.865-16.105-6.195 6.026-12.839 18.245-11.487 24.383 2.534-0.844 2.647-1.971 4.224-7.602 0.394-1.464 0.844-3.661 1.689-3.21 0.169 0.057 0.281 0.169 0.451 0.394 1.183 1.464 2.591 4.786 2.647 5.913 2.647-1.351 4.618-2.084 6.025-2.365 1.070-0.225 2.252-0.113 2.703 0.169l0.225 0.113c0.507 0.62-0.225 1.239-0.675 1.69l-8.391 7.602c-0.788 2.252-2.309 9.179-3.041 10.192-3.773 9.911-9.517 18.752-14.81 27.818 15.936 17.738 32.098 35.026 47.020 49.667 58.903 57.832 142.075 126.364 263.934 203.456 73.318 46.401 137.007 87.959 175.975 114.313 25.735 17.457 40.544 28.719 40.544 28.719-2.985 0.957-6.758-0.225-12.389-3.041-15.317-7.546-40.207-27.198-101.7-63.971-80.132-47.921-139.767-76.753-268.664-173.666-71.46-53.721-121.859-102.431-157.167-142.976-10.136 5.349-24.89 15.824-38.968 32.098-0.225 0.225-0.45 0.281-0.675 0.169-0.394-0.225-0.732-0.901-0.788-1.408-0.788-8.109 7.151-19.935 8.503-21.849-0.112-0.169-0.338-0.281-0.563-0.45-2.816-1.351-13.797-1.239-23.707 8.672-1.014 1.014-1.858 1.239-2.365 1.014-0.563-0.281-0.788-1.239-0.394-2.478 1.576-5.237 4.055-9.123 7.883-12.614-2.477-0.563-4.956-1.521-6.983-2.478-2.477-1.239-4.167-2.591-4.055-3.435 9.967 0.788 20.047-0.844 24.327-3.266-0.62-0.45-1.295-0.788-1.971-1.183-9.517-4.674-22.075-2.027-29.508 1.183zM583.223 435.221c-41.784-28.269-107.612-71.066-176.256-114.483-105.36-66.73-193.601-134.755-262.301-202.216-11.713-11.488-25.172-25.622-39.981-41.896 1.464-3.661 3.153-7.208 5.068-10.587 2.14-3.435 5.068-6.42 8.559-8.784 5.012-7.659 16.95-10.136 22.581-3.378-16.555 10.7-19.709 21.567-19.709 21.567s15.204-14.135 26.804-17.851c7.602-2.421 7.489 2.647 5.012 4.167-10.417 6.532 7.208-0.844 15.768 4.618 5.18 3.322 3.379 9.066 7.714 10.643 4.505 1.633 9.685 1.971 12.726 5.913 3.661 4.674 7.433 9.010 12.445 12.219 2.647 1.351 4.28 3.829 6.025 6.138l2.534 1.745c3.041-0.281 5.688 1.014 8.278 2.196 5.518 2.478 8.109 7.94 12.051 11.995s10.53 5.462 13.12 11.432c1.013 2.365 2.59 3.998 5.012 5.068 1.464 0.62 3.266 1.070 3.829 2.985 3.604 2.309 5.744 5.856 8.052 9.235 1.914 4.224 7.49 3.661 9.685 7.49 3.322 1.69 5.293 4.618 7.039 7.827 1.69 3.097 5.969 3.21 7.659 6.42 2.76 1.351 4.111 4.055 5.8 6.363 5.012 2.591 10.587 4.392 13.177 10.080l5.237 4.73c3.548 2.309 5.8 5.631 7.208 9.573 2.027 3.041 6.42 2.985 8.334 6.195 2.591 1.070 4.505 2.872 5.744 5.349 1.971 2.815 5.519 3.322 7.997 5.406 3.829 2.591 7.771 5.125 10.531 9.010l3.942 3.829c3.378 2.309 7.32 3.773 10.249 6.814 7.49 3.886 15.204 7.377 20.836 14.022 2.76 2.196 5.631 4.111 8.841 5.575 1.971 0.901 4.336 1.295 5.406 3.548l4.562 2.309c8.221 1.014 13.515 5.575 15.317 13.233 0.957 2.815 3.998 3.041 5.8 4.73 2.591 1.745 5.575 2.928 7.49 5.631 2.027 0.225 2.365 2.027 3.097 3.492 7.208 1.689 12.276 6.025 15.654 12.501 2.084 3.097 1.745 5.519 5.237 5.18 5.349-0.507 12.896 5.349 9.685 10.024 6.363-1.521 11.544 3.661 7.884 5.18-11.262 4.899-18.076 19.484-18.076 19.484s15.036-13.065 24.552-13.571c9.517-0.563 14.022 5.125 13.233 9.404 7.151-0.451 21.849 11.882 19.766 22.13 6.982-1.745 14.754 6.42 15.429 13.966 12.445 1.408 24.101 7.827 25.566 16.331 5.8-1.577 17.288 6.532 16.95 11.713 2.872-1.295 13.909 5.969 12.614 13.515 0.957 0.338 7.377-0.563 7.49 5.969 2.14 0.845 5.744 2.365 6.025 5.519 2.985 1.745 5.181 4.618 5.519 7.659 3.154 1.126 4.956 3.378 5.406 6.476 2.591 1.070 4.111 3.492 5.913 6.138 1.689 2.534 3.66 5.575 2.985 8.728 4.787 3.379 2.872 6.589 1.859 5.8-6.645-4.843-18.583-13.402-34.97-24.495zM75.514 103.036c0.62-0.45 1.408-0.901 2.252-1.295 40.995 45.838 92.126 91.901 152.155 137.007 102.826 77.317 160.658 110.878 221.925 146.355 15.317 8.841 31.14 18.076 47.584 27.875 31.591 18.921 53.609 32.999 69.658 43.304 15.26 9.742 25.341 16.161 33.224 20.047 3.266 1.633-3.322 3.041-3.322 3.041-6.588 1.577-10.361 0.057-15.654-2.872-8.898 1.914-23.088-0.845-33.449-9.292-1.745 0.62-4.111-0.45-4.562-2.027l-5.237-3.829c-3.885 1.858-7.659 1.070-11.037-1.183-3.21-2.14-6.138-4.73-8.39-7.996l-3.66-2.309c-7.039-0.844-12.332-4.843-17.119-9.685l-5.125-2.365c-4.674 0-7.827-4.674-12.67-3.998-11.206 2.591-19.765-1.914-26.974-10.080-5.349 0.056-10.136-1.126-13.065-6.195-7.433-1.464-13.515-5.913-20.216-8.954-5.519-1.239-9.685-5.18-14.923-6.983-7.151 0.113-13.177-2.421-17.964-7.771l-11.825-6.589c-1.858-1.070-3.661-2.196-4.73-4.224-1.351-1.014-2.985-0.338-4.449-0.675-1.183 0.113-2.365 0.338-3.491 0.225-7.659-0.788-12.107-6.138-16.387-11.713l-29.282-17.4-7.827-5.8c-5.913-1.633-10.136-5.969-14.866-9.404-14.866-5.349-33.45-13.402-34.069-22.862 2.421-22.3 10.7-36.153 10.7-36.153s-11.769 9.685-17.794 31.817c-1.633 8.784-15.148 4.843-13.346-6.307-6.814 2.985-13.458-0.62-13.515-6.87-2.083-1.464-3.773-3.266-4.73-5.688-4.73-2.872-10.53-4.054-13.74-9.179-1.69-0.451-2.252-2.084-3.379-3.097-6.982-2.084-12.895-5.744-17.175-11.769-5.463-2.928-11.769-4.561-15.711-9.967-2.027-0.788-2.872-2.646-3.942-4.336-6.025-1.633-10.587-5.237-13.853-10.53-8.953-2.14-14.979-7.546-18.189-16.218-1.915-3.998-7.208-3.773-9.292-7.489-2.365-3.266-6.87-4.843-7.659-9.348l-3.21-3.21c-3.041-1.971-4.956-4.843-6.364-8.109-2.534-2.196-6.364-2.478-8.165-5.744-3.829-2.985-5.8-6.983-6.307-11.713l-1.52-1.521c-4.843-0.338-8.784-2.14-11.206-6.532-1.408-1.971-2.647-3.998-2.196-6.589-0.451-1.914-2.14-2.421-3.492-3.435-6.025-4.449-9.46-10.192-8.615-17.964-0.675-1.633-2.027-2.647-3.097-3.942-3.379-3.885-5.969-8.165-4.617-13.684 0.45-6.42 4.28-10.981 8.672-15.148-2.027-3.773 1.464-7.208 5.237-9.63z" horiz-adv-x="620" />
<glyph unicode="&#xe61a;" d="M267.313 468.686c-6.222 6.222-18.513 11.314-27.313 11.314h-192c-8.8 0-16-7.2-16-16v-480c0-8.8 7.2-16 16-16h384c8.8 0 16 7.2 16 16v288c0 8.8-5.091 21.091-11.313 27.313l-169.374 169.373zM416 0h-352v448h175.579c1.458-0.24 4.204-1.377 5.405-2.239l168.778-168.777c0.861-1.201 1.998-3.947 2.238-5.405v-271.579zM432 480h-96c-8.8 0-10.909-5.091-4.687-11.313l105.373-105.373c6.223-6.223 11.314-4.114 11.314 4.686v96c0 8.8-7.2 16-16 16z" />
<glyph unicode="&#xe61b;" d="M192 416c0 35.346 28.654 64 64 64s64-28.654 64-64c0-35.346-28.654-64-64-64s-64 28.654-64 64zM327.765 359.765c0 35.346 28.654 64 64 64s64-28.654 64-64c0-35.346-28.654-64-64-64s-64 28.654-64 64zM416 224c0 17.673 14.327 32 32 32s32-14.327 32-32c0-17.673-14.327-32-32-32s-32 14.327-32 32zM359.765 88.235c0 17.673 14.327 32 32 32s32-14.327 32-32c0-17.673-14.327-32-32-32s-32 14.327-32 32zM224.001 32c0 0 0 0 0 0 0 17.673 14.327 32 32 32s32-14.327 32-32c0 0 0 0 0 0 0-17.673-14.327-32-32-32s-32 14.327-32 32zM88.236 88.235c0 0 0 0 0 0 0 17.673 14.327 32 32 32s32-14.327 32-32c0 0 0 0 0 0 0-17.673-14.327-32-32-32s-32 14.327-32 32zM72.236 359.765c0 0 0 0 0 0 0 26.51 21.49 48 48 48s48-21.49 48-48c0 0 0 0 0 0 0-26.51-21.49-48-48-48s-48 21.49-48 48zM28 224c0 19.882 16.117 36 36 36s36-16.118 36-36c0-19.882-16.118-36-36-36s-36 16.118-36 36z" />
<glyph unicode="&#xe61c;" d="M288 355.814v124.186l192-192-192-192v126.912c-223.375 5.241-213.794-151.896-156.93-254.912-140.356 151.707-110.55 394.785 156.93 387.814z" />
<glyph unicode="&#xe61d;" d="M0 480v-512h512v512h-512zM480 0h-448v448h448v-448z" />
<glyph unicode="&#xe61e;" d="M432 416l-240-240-112 112-80-80 192-192 320 320z" />
<glyph unicode="&#xe61f;" d="M189.44 384h-46.080c-28.16 0-40.96-12.8-40.96-40.96v-46.080c0-28.16 12.8-40.96 40.96-40.96h46.080c28.16 0 40.96 12.8 40.96 40.96v46.080c0 28.16-12.8 40.96-40.96 40.96zM368.64 384h-46.080c-28.16 0-40.96-12.8-40.96-40.96v-46.080c0-28.16 12.8-40.96 40.96-40.96h46.080c28.16 0 40.96 12.8 40.96 40.96v46.080c0 28.16-12.8 40.96-40.96 40.96zM189.44 204.8h-46.080c-28.16 0-40.96-12.8-40.96-40.96v-46.080c0-28.16 12.8-40.96 40.96-40.96h46.080c28.16 0 40.96 12.8 40.96 40.96v46.080c0 28.16-12.8 40.96-40.96 40.96zM368.64 204.8h-46.080c-28.16 0-40.96-12.8-40.96-40.96v-46.080c0-28.16 12.8-40.96 40.96-40.96h46.080c28.16 0 40.96 12.8 40.96 40.96v46.080c0 28.16-12.8 40.96-40.96 40.96z" />
<glyph unicode="&#xe620;" d="M409.6 256h-307.2c-14.131 0-25.6-11.469-25.6-25.6s11.469-25.6 25.6-25.6h307.2c14.157 0 25.6 11.469 25.6 25.6s-11.443 25.6-25.6 25.6zM102.4 307.2h307.2c14.157 0 25.6 11.469 25.6 25.6s-11.443 25.6-25.6 25.6h-307.2c-14.131 0-25.6-11.469-25.6-25.6s11.469-25.6 25.6-25.6zM409.6 153.6h-307.2c-14.131 0-25.6-11.443-25.6-25.6s11.469-25.6 25.6-25.6h307.2c14.157 0 25.6 11.443 25.6 25.6s-11.443 25.6-25.6 25.6z" />
<glyph unicode="&#xe621;" d="M407.2 266h-302.4c-9.241 0-16.8-7.562-16.8-16.8v-218.4c0-9.245 7.559-16.8 16.8-16.8h302.4c9.241 0 16.8 7.555 16.8 16.8v218.4c0 9.239-7.558 16.8-16.8 16.8zM277 138.319v-53.969c0-11.599-9.4-21-21-21-11.597 0-21 9.401-21 21v53.969c-12.542 7.26-21 20.795-21 36.332 0 23.198 18.804 42 42 42 23.198 0 42-18.802 42-42 0-15.537-8.457-29.073-21-36.332zM181.528 299.6v21.467c0 33.858 27.546 61.405 61.405 61.405h26.135c33.858 0 61.405-27.546 61.405-61.405v-21.467h51.527v21.467c0 62.115-50.818 112.933-112.932 112.933h-26.135c-62.112 0-112.933-50.818-112.933-112.932v-21.468h51.528z" />
<glyph unicode="&#xe622;" d="M203.274 18.673c0 66.765 100.505 66.765 100.505 0 0-66.047-100.505-66.047-100.505 0zM337.339 188.822c-28.774-20.645-44.327-47.99-44.327-83.282l-79.69 0.715c0 61.601 25.68 95.772 67.155 130.698 36.469 30.711 83.565 50.864 83.565 91.863 0 65.328-60.304 79.689-111.278 79.689s-111.278-25.131-111.993-81.845h-78.254c0 106.969 93.328 152.201 191.685 152.201 99.072 0 195.28-49.979 195.28-142.128 0-78.67-67.233-115.681-112.142-147.912z" />
<glyph unicode="&#xe623;" d="M512 480v-192l-69.13 69.13-106-106-53.74 53.74 106 106-69.13 69.13zM122.87 410.87l106-106-53.74-53.74-106 106-69.13-69.13v192h192zM442.87 90.87l69.13 69.13v-192h-192l69.13 69.13-106 106 53.74 53.74zM228.87 143.13l-106-106 69.13-69.13h-192v192l69.13-69.13 106 106z" />
<glyph unicode="&#xe624;" d="M373 477.395c-229.556 0-373-253.41-373-253.41s142.072-253.38 373-253.38c215.996 0 379.942 253.38 379.942 253.38s-162.582 253.41-379.942 253.41zM375.040 39.589c-101.7 0-184.109 82.425-184.109 184.147 0 101.692 82.41 184.132 184.109 184.132 101.707 0 184.155-82.44 184.155-184.132 0-101.722-82.454-184.147-184.154-184.147zM376.17 315.769c-50.643 0-91.641-41.028-91.641-91.648 0-50.613 40.998-91.64 91.64-91.64 50.628 0 91.656 41.028 91.656 91.641s-41.028 91.648-91.656 91.648z" horiz-adv-x="753" />
<glyph unicode="&#xe625;" d="M362.041 480h-212.076l-149.959-149.965v-212.076l149.959-149.954 212.076-0.005 149.959 149.959v212.076l-149.959 149.965zM288.973 71.942h-65.94v65.945h65.945v-65.945zM288.973 197.666h-65.94v178.392h65.945v-178.392z" />
<glyph unicode="&#xe626;" d="M230.141 480c-4.933 0-6.642-1.709-6.642-6.642v-11.347c0-4.932 1.709-6.642 6.642-6.642h11.071v-10.24c-124.534-8.214-223.066-111.676-223.066-238.288 0-131.974 107.145-238.841 239.118-238.841s238.841 106.868 238.841 238.841c0 126.571-98.313 230.014-222.789 238.288v10.24h11.070c4.923 0 6.642 1.711 6.642 6.642v11.347c0 4.933-1.719 6.642-6.642 6.642h-54.245zM248.131 400.017v-28.506h8.856v-121.22c21.053 0 38.995-14.947 42.897-34.871l117.345-76.385c7.392 18.219 11.981 37.983 12.731 58.673h20.48c-4.632-99.549-84.494-179.416-184.043-184.043v29.060h-18.266v-29.060c-99.56 4.621-179.411 84.488-184.043 184.043h28.506v18.266h-28.506c4.632 99.549 84.483 179.411 184.043 184.043zM266.397 400.017c99.56-4.633 179.411-84.489 184.043-184.043h-20.757c-5.897 86.957-75.999 156.406-163.286 161.072v22.971zM234.846 250.015l-25.738-51.477 16.882-5.812c5.412-11.773 17.205-19.926 30.997-19.926 5.942 0 11.725 1.476 16.606 4.151l149.726-49.816-132.566 86.625c-3.078 15.717-17.157 27.399-33.764 27.399-2.578 0-5.053-0.285-7.472-0.831l-14.668 9.686zM254.496 219.849c0.84 0.172 1.6 0 2.491 0 7.13 0 13.007-5.601 13.007-12.731s-5.878-13.007-13.007-13.007c-7.13 0-12.731 5.878-12.731 13.007 0 6.238 4.357 11.527 10.24 12.731z" />
<glyph unicode="&#xe627;" d="M443.18 371.132l-88.745 88.755c-11.059 11.055-32.909 20.112-48.555 20.112h-223.744c-15.644 0-28.445-12.8-28.445-28.445v-455.113c0-15.643 12.8-28.443 28.445-28.443h352.712c15.644 0 28.445 12.8 28.445 28.443v326.135c0 15.643-9.050 37.5-20.112 48.555zM93.515 7.822v432.356h211.821v-118.135h118.133v-314.223h-329.954zM380.448 181.442h-34.844c-9.623 0-17.423 7.791-17.423 17.424 0 9.612 7.8 17.423 17.423 17.423h34.844c9.622 0 17.421-7.81 17.421-17.423 0-9.634-7.8-17.424-17.421-17.424zM332.409 248.143c-6.805-6.811-17.839-6.811-24.632 0-6.805 6.8-6.805 17.823 0 24.634l24.632 24.654c6.805 6.79 17.834 6.79 24.64 0 6.804-6.811 6.804-17.856 0-24.654l-24.64-24.634zM258.492 59.488c-9.623 0-17.423 7.789-17.423 17.423v34.844c0 9.611 7.8 17.421 17.423 17.421s17.423-7.81 17.423-17.421v-34.844c0-9.632-7.8-17.423-17.423-17.423zM258.492 268.555c-9.623 0-17.423 7.788-17.423 17.421v34.845c0 9.612 7.8 17.423 17.423 17.423s17.423-7.81 17.423-17.423v-34.844c0-9.632-7.8-17.421-17.423-17.421zM184.576 100.31c-6.805-6.811-17.833-6.811-24.639 0-6.8 6.8-6.8 17.844 0 24.632l24.639 24.657c6.805 6.788 17.839 6.788 24.639 0 6.8-6.813 6.8-17.856 0-24.657l-24.639-24.632zM184.576 248.143l-24.639 24.634c-6.8 6.799-6.8 17.843 0 24.654 6.805 6.79 17.834 6.79 24.639 0l24.639-24.654c6.8-6.813 6.8-17.834 0-24.634-6.8-6.811-17.834-6.811-24.639 0zM188.804 198.866c0-9.632-7.8-17.424-17.423-17.424h-34.845c-9.621 0-17.422 7.791-17.422 17.424 0 9.612 7.8 17.423 17.422 17.423h34.844c9.623-0.002 17.423-7.812 17.423-17.423zM332.409 149.599l24.64-24.657c6.804-6.788 6.804-17.832 0-24.632-6.807-6.811-17.834-6.811-24.64 0l-24.632 24.632c-6.805 6.8-6.805 17.844 0 24.657 6.793 6.788 17.827 6.788 24.632 0z" />
<glyph unicode="&#xe628;" d="M166.855 107.461l75.39-35.201 130.518 377.829zM281.412 114.394c35.622 10.867 61.545 43.973 61.545 83.156 0 18.489-5.812 35.6-15.651 49.689l-45.894-132.845zM245.701 283.844c-43.155-5.106-76.656-41.761-76.656-86.295 0-11.077 2.155-21.644 5.934-31.389l70.722 117.683zM46.544 197.55c0 115.673 93.778 209.45 209.456 209.45 20.378 0 40.045-2.967 58.666-8.394l24.644 41.006c-26.123 8.988-54.134 13.939-83.311 13.939-141.39 0-256-114.618-256-256 0-85.762 42.212-161.612 106.945-208.067l23.388 40.506c-50.878 38.211-83.788 99.039-83.788 167.562zM386.267 417.911l-15.589-45.123c57.055-37.416 94.778-101.906 94.778-175.24 0-68.522-32.911-129.351-83.789-167.562l23.388-40.512c64.734 46.455 106.945 122.305 106.945 208.073 0.001 93.806-50.483 175.783-125.733 220.362z" />
<glyph unicode="&#xe629;" d="M468.881 237.476c9.62 0 18.5-3.954 18.5-3.954 13.54-6.024 24.618-15.003 24.618-0.18v106.535c0 14.82-12.127 26.946-26.947 26.946h-106.537c-14.82 0-2.233 11.712 1.623 26.022 0 0 2.515 9.335 2.515 17.094 0 38.695-31.37 70.063-70.063 70.063s-70.063-31.368-70.063-70.063c0-9.033 2.273-17.163 2.273-17.163 3.99-14.275 16.682-25.954 1.863-25.954h-106.535c-14.823 0-26.95-12.125-26.95-26.946v-111.925c0-14.82-11.139-0.607-24.76 5.24 0 0-9.975 4.285-18.355 4.285-38.695 0.001-70.063-31.366-70.063-70.064 0-38.699 31.367-70.064 70.063-70.064 6.831 0 18.193 4.668 18.193 4.668 13.707 5.638 24.922 19.678 24.922 4.856v-111.923c0-14.818 12.129-26.947 26.95-26.947h106.535c14.82 0 5.832 11.075-0.212 24.605 0 0-3.923 8.786-3.923 18.51 0 38.694 31.37 70.065 70.063 70.065s70.063-31.371 70.063-70.065c0-10.399-3.738-18.594-3.738-18.594-6.147-13.486-15.22-24.521-0.4-24.521h106.537c14.82 0 26.947 12.128 26.947 26.947v106.536c0 14.82-11.094 5.88-24.653-0.103 0 0-9.13-4.033-18.465-4.033-38.692 0-70.060 31.365-70.060 70.063 0 38.696 31.368 70.064 70.060 70.064z" />
<glyph unicode="&#xe62a;" d="M191.79 167.052c-6.17 2.059-10.819 6.118-13.691 11.952-1.669 3.392-1.767 3.915-1.767 9.565v5.978l2.4 4.758c1.32 2.617 3.677 6.168 5.237 7.892 10.826 11.963 29.744 9.015 36.725-5.723 1.601-3.38 1.74-4.111 1.74-9.149 0-5.442-0.015-5.505-2.581-10.673-4.981-10.033-11.407-14.824-20.578-15.342-3.448-0.195-5.201-0.022-7.486 0.741zM132.846 198.321c-3.632 1.192-7.023 3.435-9.701 6.413-3.060 3.403-4.261 5.699-5.44 10.389-0.769 3.059-0.814 4.21-0.29 7.382 0.809 4.903 2.904 9.236 5.99 12.391 2.1 2.147 10.189 8.067 20.688 15.142 5.030 3.389 10.689 4.738 16.26 3.873 7.317-1.136 14.072-6.218 17.219-12.956 1.25-2.677 1.41-3.697 1.41-8.986 0-5.274-0.162-6.313-1.396-8.954-0.768-1.644-2.554-4.276-3.968-5.849-2.831-3.149-21.172-16.131-25.539-18.077-3.342-1.489-11.749-1.913-15.233-0.769v0zM97.847 258.779c-8.68 2.187-15.231 9.353-16.733 18.306-1.519 9.059 3.796 19.212 12.117 23.144 1.556 0.736 9.053 3.244 16.66 5.575 13.082 4.009 14.109 4.239 18.983 4.249 4.675 0.010 5.49-0.149 8.799-1.712 11.663-5.513 16.635-19.185 10.975-30.185-2.037-3.959-6.419-8.262-10.282-10.096-4.558-2.164-30.266-9.667-34.011-9.926-1.767-0.123-4.559 0.154-6.508 0.645v0zM133.485 330.353c-23.785 6.337-45.138 12.428-47.458 13.54-4.13 1.978-8.124 6.098-10.344 10.668-1.709 3.518-1.838 4.159-1.848 9.205-0.010 4.983 0.129 5.719 1.716 9.070 4.153 8.768 13.126 14.166 22.002 13.239 4.545-0.475 48.337-12.526 51.722-14.233 3.926-1.98 8.069-6.271 10.119-10.482 1.61-3.307 1.733-3.963 1.742-9.254 0.008-5.294-0.113-5.953-1.732-9.37-2.206-4.657-6.274-8.69-10.995-10.901-3.002-1.406-4.271-1.675-8.417-1.786-2.685-0.071-5.613 0.065-6.508 0.304v0zM163.858 381.577c-5.931 1.976-6.226 2.226-30.964 26.22-16.186 15.699-17.566 17.513-18.799 24.714-1.96 11.444 6.317 23.129 17.871 25.229 3.532 0.642 9.801-0.069 12.969-1.47 3.908-1.728 8.274-5.635 26.839-24.014 18.481-18.296 19.039-19.006 20.181-25.674 1.632-9.528-3.606-19.38-12.583-23.663-2.982-1.423-4.305-1.717-8.44-1.876-3.125-0.12-5.691 0.075-7.074 0.535v0zM226.881 428.632c-6.26 1.473-12.35 6.255-15.17 11.911-3.477 6.972-3.368 18.029 0.248 25.117 1.522 2.983 6.233 7.56 9.436 9.165 12.291 6.161 27.284-0.018 31.351-12.918 1.234-3.915 1.667-10.684 0.934-14.594-2.433-12.969-14.709-21.526-26.798-18.68zM283.83 416.126c-7.791 1.953-13.759 7.658-16.376 15.656-0.734 2.243-0.889 3.961-0.661 7.322 0.343 5.061 0.918 6.6 7.853 20.999 5.526 11.474 7.819 14.308 14.067 17.385 3.452 1.7 3.998 1.804 9.372 1.8 5.325-0.004 5.947-0.122 9.298-1.758 9.82-4.792 14.853-15.392 12.178-25.649-1.142-4.381-10.969-24.969-13.254-27.767-4.264-5.221-9.876-8.085-16.347-8.343-2.238-0.089-4.995 0.071-6.13 0.355zM334.925 382.188c-10.349 3.81-16.376 12.824-15.507 23.189 0.58 6.916 2.591 10.072 14.349 22.514 11.622 12.298 12.75 13.303 17.286 15.387 10.883 5 23.766 0.053 29.002-11.137 2.83-6.047 2.696-13.244-0.36-19.291-1.339-2.648-4.482-6.267-16.132-18.571-7.738-8.171-10.554-10.382-15.26-11.98-3.219-1.092-10.55-1.154-13.378-0.113zM359.112 321.125c-5.728 1.5-11.788 6.336-14.384 11.477-3.341 6.618-3.334 13.59 0.019 20.411 1.899 3.863 6.18 8.076 10.058 9.899 1.409 0.662 12.717 3.914 25.13 7.226 20.933 5.586 22.941 6.025 27.721 6.063 6.638 0.053 10.623-1.4 15.215-5.545 10.632-9.599 9.43-26.747-2.438-34.774-3.373-2.281-5.151-2.844-28.606-9.050-17.942-4.748-22.692-5.817-26.476-5.959-2.536-0.095-5.342 0.017-6.238 0.252zM404.4 249.983c-0.746 0.131-11.89 2.875-24.765 6.098-15.519 3.885-24.454 6.384-26.508 7.416-4.214 2.118-8.792 7.178-10.558 11.668-1.887 4.801-1.892 11.854-0.011 16.195 3.851 8.886 11.496 14.081 20.743 14.096 4.754 0.007 51.447-11.539 55.868-13.816 8.571-4.413 13.731-14.711 11.875-23.698-2.577-12.474-14.010-20.179-26.644-17.959zM238.294 338.83v-285.005l69.157 52.015 65.248-137.841 46.961 27.529-60.39 132.982 78.203 19.236z" />
<glyph unicode="&#xe62b;" d="M511.999 167.344h-0.062c-0.627 20.361-17.294 36.685-37.805 36.685h-257.807c-20.512 0-37.171-16.325-37.805-36.685l-0.066-114.28c0-20.915 16.96-37.868 37.87-37.868h37.866v70.796h14.694v-70.796h152.688v70.796h14.69v-70.796h37.87c20.915 0 37.868 16.954 37.868 37.868v114.28zM160.687 129.695h-135.129v221.796h199.871c1.676 9.665 4.485 18.948 8.307 27.695h-201.272c-17.863 0-32.465-14.61-32.465-32.454v-215.029c0-17.856 14.602-32.445 32.465-32.445h128.205l0.017 30.435zM160.642 53.073l0.016 23.33c-1.050 0.313-11.487 0-11.487 0-6.281 0-11.432-5.156-11.432-11.436v-20.889h-11.088c-6.279 0-11.427-5.146-11.427-11.432v-19.094h61.915c-10.179 10.097-16.497 24.089-16.497 39.521zM345.229 434.448c-57.332 0-103.812-46.47-103.812-103.805 0-57.338 46.479-103.8 103.812-103.8s103.815 46.462 103.815 103.8c-0.001 57.335-46.483 103.805-103.815 103.805zM198.969 221.386h0.642l-17.838 17.838 43.744 43.741-28.008 28.004-43.741-43.741-43.741 43.741-28.008-28.004 43.741-43.741-43.742-43.745 28.007-28.009 43.741 43.741 11.195-11.194c6.129 12.635 19.024 21.368 34.010 21.368z" />
<glyph unicode="&#xe62c;" d="M358.375 348.16l0.026-235.52-204.8 117.76z" />
<glyph unicode="&#xe62d;" d="M153.625 348.16l-0.025-235.52 204.8 117.76z" />
<glyph unicode="&#xe62e;" d="M360.688 236.436l-147.569 147.564-35.15-35.187 124.844-124.813-124.844-124.875 35.15-35.125 147.569 147.564zM256 448c123.706 0 224-100.313 224-224 0-123.75-100.294-224-224-224-123.701 0-224 100.25-224 224 0 123.687 100.299 224 224 224zM256 480c-141.157 0-256-114.836-256-256s114.843-256 256-256c141.157 0 256 114.836 256 256s-114.843 256-256 256v0z" />
<glyph unicode="&#xe62f;" d="M298.882 384l35.15-35.187-124.844-124.813 124.844-124.875-35.15-35.125-147.569 147.564v24.873zM256 448c-123.706 0-224-100.313-224-224 0-123.75 100.294-224 224-224 123.701 0 224 100.25 224 224 0 123.687-100.299 224-224 224zM256 480c141.157 0 256-114.836 256-256s-114.843-256-256-256c-141.157 0-256 114.836-256 256s114.843 256 256 256v0z" />
<glyph unicode="&#xe630;" d="M59.614 112.805l-49.797-134.767 134.548 50.015zM110.632 98.195l-40.595 40.543 311.304 311.76 40.451-40.404zM169.668 39.14l-40.415 40.439 311.17 311.909 40.772-40.816zM492.518 368.552l9.534 9.539c0 0 4.116 19.965-33.912 57.925-38.023 37.971-57.969 33.813-57.969 33.813l-9.457-9.483 91.803-91.794z" />
<glyph unicode="&#xe631;" d="M429.457 408.546h-82.159v54.387h-182.602v-54.387h-82.154l-19.341-46.579h385.599l-19.344 46.579zM192.864 435.745h126.27v-27.197h-126.269v27.197zM92.338 327.842l24.24-342.776h278.841l24.241 342.776h-327.322zM183.236 21.974l-19.341 251.481h29.219l19.345-251.481h-29.223zM338.473 21.974h-29.223l9.629 251.481h29.223l-9.629-251.481z" />
</font>
</defs>
</svg>
