<svg xmlns="http://www.w3.org/2000/svg" width="151" height="112" viewBox="0 0 151 112">
  <title>
    Http monitor
  </title>
  <g fill="none" fill-rule="evenodd">
    <g transform="translate(-475.000000, -221.000000)" fill-rule="nonzero">
      <g transform="translate(456.000000, 206.000000)">
        <g>
          <g transform="translate(19.000000, 15.000000)">
            <path d="M147.4 112H3.4c-1.7 0-3-1.3-3-3V3c0-1.7 1.3-3 3-3h144c1.7 0 3 1.3 3 3v106c0 1.7-1.4 3-3 3z" fill="#F2F2F2"/>
            <g transform="translate(6.000000, 5.000000)">
              <path fill="#898989" d="M1.5 7.3H3V1.7l-1.7.4v-.9L2.9.8h1v6.5h1.5v.8h-4z"/>
              <path d="M2 21.3h3.3v.8H.9v-.8c.6-.6 1.1-1.2 1.6-1.7s.8-.8.9-1c.3-.4.5-.7.7-1 .1-.2.2-.5.2-.8 0-.4-.1-.7-.4-1-.2-.2-.6-.3-1-.3-.3 0-.6.1-.9.2-.3.1-.7.3-1 .5v-1c.3-.2.7-.3 1-.4.3-.1.6-.1 1-.1.7 0 1.3.2 1.7.6.4.4.7.9.7 1.5 0 .3-.1.6-.2.9-.1.3-.4.7-.7 1-.2.2-.4.5-.8.9-.5.4-1 1-1.7 1.7z" fill="#898989"/>
              <path d="M4 32.3c.5.1.8.4 1.1.7.3.3.4.7.4 1.2 0 .7-.2 1.2-.7 1.6-.5.4-1.1.6-1.9.6-.3 0-.7 0-1-.1-.3-.1-.7-.2-1-.3v-1c.3.2.7.3 1 .4.3.1.6.1 1 .1.5 0 1-.1 1.2-.4.2-.3.4-.6.4-1.1 0-.4-.1-.8-.4-1-.3-.2-.7-.4-1.2-.4h-.8v-.8h.8c.5 0 .8-.1 1.1-.3.3-.2.4-.5.4-.8 0-.4-.1-.7-.4-.9-.2-.2-.6-.3-1-.3-.3 0-.6 0-.9.1-.3.1-.6.2-1 .3V29c.4-.1.7-.2 1.1-.2.3-.1.6-.1.8-.1.7 0 1.3.2 1.7.5.4.4.6.8.6 1.4 0 .4-.1.7-.3 1-.3.4-.6.6-1 .7z" fill="#898989"/>
              <path d="M3.6 42.9h1.1v4.8h1v.8h-1v1.7h-1v-1.7H.6v-.9l3-4.7zm.2.9l-2.3 3.9h2.3v-3.9z" fill="#898989"/>
              <path d="M1.2 56.9h3.7v.8H2.1v1.8c.1-.1.3-.1.4-.1h.4c.8 0 1.4.2 1.8.7.4.5.7 1 .7 1.8s-.2 1.4-.7 1.8c-.5.4-1.1.7-1.9.7-.4 0-.7 0-1.1-.1-.3-.1-.6-.1-.9-.2v-1c.3.2.6.3.9.4.3.1.6.1.9.1.5 0 1-.1 1.3-.4.3-.3.4-.7.4-1.2s-.2-.9-.5-1.2c-.3-.3-.7-.4-1.3-.4-.3 0-.5 0-.8.1-.3.1-.5.2-.7.3v-3.9h.2z" fill="#898989"/>
              <path d="M17.3 60.8v3.4h-.9v-3.4c0-.5-.1-.9-.3-1.1-.2-.2-.4-.3-.8-.3s-.7.1-1 .4c-.2.3-.3.7-.3 1.3v3.1h-.9v-7.6h.9v2.9c.2-.3.4-.5.6-.7.3-.2.6-.2 1-.2.6 0 1 .2 1.2.5.4.4.5.9.5 1.7z" fill="#898989"/>
              <path d="M21.2 57.1v1.6h2v.7h-2v3c0 .4.1.7.2.8.1.1.4.2.8.2h1v.7h-1.1c-.7 0-1.1-.1-1.4-.4-.3-.3-.4-.7-.4-1.4v-3h-1.5v-.7h1.5V57h.9v.1z" fill="#898989"/>
              <path d="M27.2 57.1v1.6h2v.7h-2v3c0 .4.1.7.2.8.1.1.4.2.8.2h1v.7h-1.1c-.7 0-1.1-.1-1.4-.4-.3-.3-.4-.7-.4-1.4v-3h-1.5v-.7h1.5V57h.9v.1z" fill="#898989"/>
              <path d="M32.1 63.5v2.8h-.9v-7.5h.9v.7c.1-.3.3-.5.6-.6.2-.1.5-.2.9-.2.7 0 1.2.3 1.6.8.4.5.6 1.2.6 2.1 0 .9-.2 1.6-.6 2.1-.4.5-.9.8-1.6.8-.3 0-.6-.1-.9-.2-.3-.3-.5-.6-.6-.8zm2.6-2.1c0-.7-.1-1.2-.3-1.6-.2-.4-.5-.5-1-.5-.4 0-.8.2-1 .5-.2.4-.3.9-.3 1.6 0 .7.1 1.2.3 1.6.2.4.6.5 1 .5s.8-.2 1-.5c.2-.3.3-.9.3-1.6z" fill="#898989"/>
              <path d="M44.5 56.9c1.1 0 1.9.3 2.5.9.6.6.8 1.5.8 2.8 0 1.2-.3 2.2-.8 2.8-.5.6-1.3.9-2.5.9H43V57h1.5v-.1zm-.1 6.5c.8 0 1.4-.2 1.7-.6.3-.4.5-1.1.5-2.2s-.2-1.8-.5-2.2c-.3-.4-.9-.6-1.7-.6H44v5.7h.4v-.1z" fill="#898989"/>
              <path d="M53.5 61v3.1h-.9v-.8c-.2.3-.4.6-.7.7-.3.2-.6.2-1.1.2-.6 0-1-.2-1.3-.5-.3-.3-.5-.7-.5-1.3 0-.6.2-1.1.6-1.4.4-.3 1-.5 1.8-.5h1.2v-.1c0-.4-.1-.8-.3-.9-.2-.2-.6-.3-1-.3-.3 0-.6 0-.9.1-.3.1-.6.2-.9.4v-.9c.3-.1.7-.2 1-.3.3-.1.6-.1.9-.1.5 0 .8.1 1.2.2.3.1.6.3.8.6l.3.6c-.2.4-.2.8-.2 1.2zm-1.7.4h-.3c-.5 0-.9.1-1.2.3-.3.2-.4.5-.4.8 0 .3.1.6.3.8.2.2.5.3.8.3.5 0 .9-.2 1.2-.5.3-.3.4-.8.4-1.4v-.2h-.8v-.1z" fill="#898989"/>
              <path d="M57.3 57.1v1.6h2v.7h-2v3c0 .4.1.7.2.8.1.1.4.2.8.2h1v.7h-1.1c-.7 0-1.1-.1-1.4-.4-.3-.3-.4-.7-.4-1.4v-3H55v-.7h1.5V57h.8v.1z" fill="#898989"/>
              <path d="M65.5 61v3.1h-.9v-.8c-.2.3-.4.6-.7.7-.3.2-.6.2-1.1.2-.6 0-1-.2-1.3-.5-.3-.3-.5-.7-.5-1.3 0-.6.2-1.1.6-1.4.4-.3 1-.5 1.8-.5h1.2v-.1c0-.4-.1-.8-.3-.9-.2-.2-.6-.3-1-.3-.3 0-.6 0-.9.1-.3.1-.6.2-.9.4v-.9c.3-.1.7-.2 1-.3.3-.1.6-.1.9-.1.5 0 .8.1 1.2.2.3.1.6.3.8.6l.3.6c-.2.4-.2.8-.2 1.2zm-1.7.4h-.3c-.5 0-.9.1-1.2.3-.3.2-.4.5-.4.8 0 .3.1.6.3.8.2.2.5.3.8.3.5 0 .9-.2 1.2-.5.3-.3.4-.8.4-1.4v-.2h-.8v-.1z" fill="#898989"/>
              <path d="M68.8 59H70v1.5h-1.2V59zm0 3.7H70v1.5h-1.2v-1.5z" fill="#898989"/>
              <path d="M5 71v.9c-.2-.1-.4-.2-.7-.3-.2-.1-.5-.1-.7-.1-.6 0-1.1.2-1.4.7-.3.5-.5 1.2-.5 2.1.2-.3.4-.6.6-.8.3-.2.6-.3 1-.3.7 0 1.2.2 1.6.6.4.4.6 1 .6 1.8s-.2 1.4-.6 1.8c-.4.4-1 .6-1.7.6-.8 0-1.5-.3-1.9-.9-.4-.6-.6-1.6-.6-2.9 0-1.2.2-2.2.7-2.8.5-.6 1.2-1 2.1-1 .2 0 .5 0 .7.1.3.4.6.4.8.5zm-1.8 3.1c-.4 0-.8.2-1 .5-.2.3-.4.7-.4 1.3 0 .6.1 1 .4 1.3.3.3.6.5 1 .5s.8-.1 1-.4c.2-.3.3-.7.3-1.3 0-.6-.1-1-.3-1.3-.2-.3-.5-.6-1-.6z" fill="#898989"/>
              <path d="M29 72.9v.9c-.3-.1-.5-.3-.8-.3-.3 0-.5-.1-.8-.1-.4 0-.7.1-.9.2-.2.1-.3.3-.3.6 0 .2.1.4.2.5.1.1.5.2 1.1.4l.4.1c.4.1.8.3 1 .5.2.3.3.6.3 1 0 .5-.2 1-.6 1.3-.4.3-.9.5-1.6.5-.3 0-.6 0-.8-.1-.3-.1-.6-.1-1-.3V77c.3.2.7.3 1 .4.3.1.6.1.9.1.4 0 .7-.1.9-.2.2-.2.3-.4.3-.7 0-.4-.4-.7-1.2-.9l-.3-.1c-.5-.1-.9-.3-1.1-.5-.2-.2-.4-.6-.4-1 0-.5.2-.9.5-1.2.4-.3.9-.4 1.5-.4.3 0 .6 0 .8.1.4.1.6.2.9.3z" fill="#898989"/>
              <path d="M33.3 71.1v1.6h2v.7h-2v3c0 .4.1.7.2.8.1.1.4.2.8.2h1v.7h-1.1c-.7 0-1.1-.1-1.4-.4-.3-.3-.4-.7-.4-1.4v-3h-1.5v-.7h1.5V71h.9v.1z" fill="#898989"/>
              <path d="M41.5 75v3.1h-.9v-.8c-.2.3-.4.6-.7.7-.3.2-.6.2-1.1.2-.6 0-1-.2-1.3-.5-.3-.3-.5-.7-.5-1.3 0-.6.2-1.1.6-1.4.4-.3 1-.5 1.8-.5h1.2v-.1c0-.4-.1-.8-.3-.9-.2-.2-.6-.3-1-.3-.3 0-.6 0-.9.1-.3.1-.6.2-.9.4v-.9c.3-.1.7-.2 1-.3.3-.1.6-.1.9-.1.5 0 .8.1 1.2.2.3.1.6.3.8.6l.3.6c-.3.4-.2.8-.2 1.2zm-1.8.4h-.3c-.5 0-.9.1-1.2.3-.3.2-.4.5-.4.8 0 .3.1.6.3.8.2.2.5.3.8.3.5 0 .9-.2 1.2-.5.3-.3.4-.8.4-1.4v-.2h-.8v-.1z" fill="#898989"/>
              <path d="M45.3 71.1v1.6h2v.7h-2v3c0 .4.1.7.2.8.1.1.4.2.8.2h1v.7h-1.1c-.7 0-1.1-.1-1.4-.4-.3-.3-.4-.7-.4-1.4v-3H43v-.7h1.5V71h.8v.1z" fill="#898989"/>
              <path d="M49.3 76.1v-3.4h.9v3.4c0 .5.1.9.3 1.1.2.2.4.3.8.3s.7-.1 1-.4c.2-.3.3-.7.3-1.3v-3.1h.9v5.5h-.9v-.8c-.2.3-.4.6-.7.7-.3.2-.6.2-1 .2-.6 0-1-.2-1.2-.5-.3-.4-.4-1-.4-1.7z" fill="#898989"/>
              <path d="M59.1 72.9v.9c-.3-.1-.5-.3-.8-.3-.3 0-.5-.1-.8-.1-.4 0-.7.1-.9.2-.2.1-.3.3-.3.6 0 .2.1.4.2.5.1.1.5.2 1.1.4l.4.1c.4.1.8.3 1 .5.2.3.3.6.3 1 0 .5-.2 1-.6 1.3-.4.3-.9.5-1.6.5-.3 0-.6 0-.8-.1-.3-.1-.6-.1-1-.3V77c.3.2.7.3 1 .4.3.1.6.1.9.1.4 0 .7-.1.9-.2.2-.2.3-.4.3-.7 0-.4-.4-.7-1.2-.9l-.3-.1c-.5-.1-.9-.3-1.1-.5-.2-.2-.4-.6-.4-1 0-.5.2-.9.5-1.2.4-.3.9-.4 1.5-.4.3 0 .6 0 .8.1.4.1.6.2.9.3z" fill="#898989"/>
              <path d="M62.8 73H64v1.5h-1.2V73zm0 3.7H64v1.5h-1.2v-1.5z" fill="#898989"/>
              <path d="M74.2 77.3h3.3v.8h-4.4v-.8c.6-.6 1.1-1.2 1.6-1.7s.8-.8.9-1c.3-.4.5-.7.7-1 .1-.2.2-.5.2-.8 0-.4-.1-.7-.4-1-.2-.2-.6-.3-1-.3-.3 0-.6.1-.9.2-.3.1-.7.3-1 .5v-1c.3-.2.7-.3 1-.4.3-.1.6-.1 1-.1.7 0 1.3.2 1.7.6.4.4.7.9.7 1.5 0 .3-.1.6-.2.9-.1.3-.4.7-.7 1-.2.2-.4.5-.8.9l-1.7 1.7z" fill="#7DC540"/>
              <path d="M81.4 70.7c.8 0 1.4.3 1.8 1 .4.6.6 1.6.6 2.8 0 1.2-.2 2.2-.6 2.8-.4.6-1 1-1.8 1s-1.4-.3-1.8-1c-.4-.7-.6-1.6-.6-2.8 0-1.2.2-2.2.6-2.8.4-.6 1.1-1 1.8-1zm0 .8c-.5 0-.8.2-1 .7-.2.5-.3 1.2-.3 2.3 0 1 .1 1.8.3 2.3.2.5.6.7 1 .7.5 0 .8-.2 1-.7.2-.5.3-1.2.3-2.3 0-1-.1-1.8-.3-2.3-.2-.4-.5-.7-1-.7zm-.6 3c0-.2.1-.3.2-.5.1-.1.3-.2.5-.2s.3.1.5.2.2.3.2.5-.1.3-.2.5c-.1.1-.3.2-.5.2s-.3-.1-.5-.2c-.1-.2-.2-.3-.2-.5z" fill="#7DC540"/>
              <path d="M87.5 70.7c.8 0 1.4.3 1.8 1 .4.6.6 1.6.6 2.8 0 1.2-.2 2.2-.6 2.8-.4.6-1 1-1.8 1s-1.4-.3-1.8-1c-.4-.7-.6-1.6-.6-2.8 0-1.2.2-2.2.6-2.8.4-.6 1-1 1.8-1zm0 .8c-.5 0-.8.2-1 .7-.2.5-.3 1.2-.3 2.3 0 1 .1 1.8.3 2.3.2.5.6.7 1 .7.5 0 .8-.2 1-.7.2-.5.3-1.2.3-2.3 0-1-.1-1.8-.3-2.3-.2-.4-.6-.7-1-.7zm-.7 3c0-.2.1-.3.2-.5.1-.1.3-.2.5-.2s.3.1.5.2.2.3.2.5-.1.3-.2.5c-.1.1-.3.2-.5.2s-.3-.1-.5-.2c-.1-.2-.2-.3-.2-.5z" fill="#7DC540"/>
              <path fill="#898989" d="M.8 84.9h4.6v.4l-2.6 6.9h-1l2.5-6.5H.8z"/>
              <path d="M29 86.9v.9c-.3-.1-.5-.3-.8-.3-.3 0-.5-.1-.8-.1-.4 0-.7.1-.9.2-.2.1-.3.3-.3.6 0 .2.1.4.2.5.1.1.5.2 1.1.4l.4.1c.4.1.8.3 1 .5.2.3.3.6.3 1 0 .5-.2 1-.6 1.3-.4.3-.9.5-1.6.5-.3 0-.6 0-.8-.1-.3-.1-.6-.1-1-.3V91c.3.2.7.3 1 .4.3.1.6.1.9.1.4 0 .7-.1.9-.2.2-.2.3-.4.3-.7 0-.4-.4-.7-1.2-.9l-.3-.1c-.5-.1-.9-.3-1.1-.5-.2-.2-.4-.6-.4-1 0-.5.2-.9.5-1.2.4-.3.9-.4 1.5-.4.3 0 .6 0 .8.1.4.1.6.2.9.3z" fill="#898989"/>
              <path d="M33.3 85.1v1.6h2v.7h-2v3c0 .4.1.7.2.8.1.1.4.2.8.2h1v.7h-1.1c-.7 0-1.1-.1-1.4-.4-.3-.3-.4-.7-.4-1.4v-3h-1.5v-.7h1.5V85h.9v.1z" fill="#898989"/>
              <path d="M41.5 89v3.1h-.9v-.8c-.2.3-.4.6-.7.7-.3.2-.6.2-1.1.2-.6 0-1-.2-1.3-.5-.3-.3-.5-.7-.5-1.3 0-.6.2-1.1.6-1.4.4-.3 1-.5 1.8-.5h1.2v-.1c0-.4-.1-.8-.3-.9-.2-.2-.6-.3-1-.3-.3 0-.6 0-.9.1-.3.1-.6.2-.9.4v-.9c.3-.1.7-.2 1-.3.3-.1.6-.1.9-.1.5 0 .8.1 1.2.2.3.1.6.3.8.6l.3.6c-.3.4-.2.8-.2 1.2zm-1.8.4h-.3c-.5 0-.9.1-1.2.3-.3.2-.4.5-.4.8 0 .3.1.6.3.8.2.2.5.3.8.3.5 0 .9-.2 1.2-.5.3-.3.4-.8.4-1.4v-.2h-.8v-.1z" fill="#898989"/>
              <path d="M45.3 85.1v1.6h2v.7h-2v3c0 .4.1.7.2.8.1.1.4.2.8.2h1v.7h-1.1c-.7 0-1.1-.1-1.4-.4-.3-.3-.4-.7-.4-1.4v-3H43v-.7h1.5V85h.8v.1z" fill="#898989"/>
              <path d="M49.3 90.1v-3.4h.9v3.4c0 .5.1.9.3 1.1.2.2.4.3.8.3s.7-.1 1-.4c.2-.3.3-.7.3-1.3v-3.1h.9v5.5h-.9v-.8c-.2.3-.4.6-.7.7-.3.2-.6.2-1 .2-.6 0-1-.2-1.2-.5-.3-.4-.4-1-.4-1.7z" fill="#898989"/>
              <path d="M59.1 86.9v.9c-.3-.1-.5-.3-.8-.3-.3 0-.5-.1-.8-.1-.4 0-.7.1-.9.2-.2.1-.3.3-.3.6 0 .2.1.4.2.5.1.1.5.2 1.1.4l.4.1c.4.1.8.3 1 .5.2.3.3.6.3 1 0 .5-.2 1-.6 1.3-.4.3-.9.5-1.6.5-.3 0-.6 0-.8-.1-.3-.1-.6-.1-1-.3V91c.3.2.7.3 1 .4.3.1.6.1.9.1.4 0 .7-.1.9-.2.2-.2.3-.4.3-.7 0-.4-.4-.7-1.2-.9l-.3-.1c-.5-.1-.9-.3-1.1-.5-.2-.2-.4-.6-.4-1 0-.5.2-.9.5-1.2.4-.3.9-.4 1.5-.4.3 0 .6 0 .8.1.4.1.6.2.9.3z" fill="#898989"/>
              <path fill="#898989" d="M60.6 84.9h5.6v.8h-2.3v6.5h-1v-6.5h-2.3v-.8z"/>
              <path d="M71.8 89.2v.4h-3.9c0 .6.2 1.1.5 1.4.3.3.8.5 1.3.5.3 0 .6 0 .9-.1.3-.1.6-.2 1-.4v.9c-.3.1-.7.2-1 .3-.3.1-.6.1-.9.1-.8 0-1.5-.3-2-.8s-.7-1.2-.7-2.1c0-.9.2-1.6.7-2.1.5-.5 1.1-.8 1.9-.8.7 0 1.2.2 1.6.7.4.5.6 1.2.6 2zm-.9-.3c0-.5-.1-.9-.4-1.2-.2-.3-.6-.4-1-.4s-.8.1-1.1.4c-.3.3-.4.7-.5 1.2h3z" fill="#898989"/>
              <path fill="#898989" d="M77.9 86.7l-2 2.6 2.1 2.9h-1L75.4 90l-1.6 2.2h-1l2.1-2.9-2-2.6h1l1.5 2 1.4-2z"/>
              <path d="M81.4 85.1v1.6h2v.7h-2v3c0 .4.1.7.2.8.1.1.4.2.8.2h1v.7h-1.1c-.7 0-1.1-.1-1.4-.4-.3-.3-.4-.7-.4-1.4v-3H79v-.7h1.5V85h.9v.1z" fill="#898989"/>
              <path d="M86.8 87H88v1.5h-1.2V87zm0 3.7H88v1.5h-1.2v-1.5z" fill="#898989"/>
              <path d="M98.8 87.4h-1.2v-1l1-1.9h.7l-.5 1.9v1zm2.2 0h-1.2v-1l1-1.9h.8l-.5 1.9v1h-.1z" fill="#7DC540"/>
              <path d="M108 88.5c0 1.3-.2 2.2-.6 2.8-.4.6-1 .9-1.8.9s-1.4-.3-1.8-.9c-.4-.6-.6-1.6-.6-2.8 0-1.3.2-2.2.6-2.8.4-.6 1-.9 1.8-.9s1.4.3 1.8.9c.4.6.6 1.6.6 2.8zm-1.1 0c0-1.1-.1-1.8-.3-2.3-.2-.5-.6-.7-1.1-.7-.5 0-.9.2-1.1.7-.2.5-.3 1.2-.3 2.3 0 1.1.1 1.8.3 2.3.2.5.6.7 1.1.7.5 0 .9-.2 1.1-.7.2-.4.3-1.2.3-2.3z" fill="#7DC540"/>
              <path fill="#7DC540" d="M109.2 84.9h1v3.2l3.1-3.2h1.2l-2.8 3 2.9 4.3h-1.2l-2.4-3.7-.8.8v2.9h-1v-7.3z"/>
              <path d="M116.1 84.6h1.2v1l-1 1.9h-.8l.5-1.9v-1h.1zm2.2 0h1.2v1l-1 1.9h-.7l.5-1.9v-1z" fill="#7DC540"/>
              <path d="M2.3 102.3c-.4-.1-.7-.3-1-.6-.2-.3-.4-.6-.4-1.1 0-.6.2-1 .6-1.4.4-.3.9-.5 1.6-.5.7 0 1.2.2 1.6.5.4.3.6.8.6 1.4 0 .4-.1.8-.4 1.1-.2.3-.6.5-1 .6.5.1.9.3 1.1.6.3.3.4.7.4 1.3 0 .7-.2 1.2-.6 1.5-.4.3-1 .6-1.7.6s-1.3-.2-1.7-.6c-.4-.4-.6-.9-.6-1.5 0-.5.1-.9.4-1.3.3-.3.6-.5 1.1-.6zm.9.4c-.4 0-.8.1-1 .4-.2.2-.4.6-.4 1s.1.8.4 1c.2.2.6.4 1 .4s.8-.1 1-.4c.2-.2.4-.6.4-1.1 0-.4-.1-.8-.4-1-.2-.2-.6-.3-1-.3zm-1.2-2c0 .4.1.7.3.9.2.2.5.3.9.3s.7-.1.9-.3c.2-.2.3-.5.3-.9s-.1-.7-.3-.9c-.2-.2-.5-.3-.9-.3s-.7.1-.9.3c-.2.2-.3.5-.3.9z" fill="#898989"/>
            </g>
            <path d="M147.4 2c.6 0 1 .4 1 1v106c0 .6-.4 1-1 1H3.4c-.6 0-1-.4-1-1V3c0-.6.4-1 1-1h144zm0-2H3.4c-1.7 0-3 1.3-3 3v106c0 1.7 1.3 3 3 3h144c1.7 0 3-1.3 3-3V3c0-1.7-1.4-3-3-3z" fill="#898989"/>
            <path fill="#898989" d="M19.2 7.8h40v4h-40z"/>
            <path fill="#898989" d="M31.6 21.8h60v4h-60z"/>
            <path fill="#898989" d="M31.6 35.8h40v4h-40z"/>
            <path fill="#898989" d="M19.2 49.8h62v4h-62z"/>
            <path fill="#898989" d="M74.8 35.9h8v4h-8z"/>
          </g>
        </g>
      </g>
    </g>
  </g>
</svg>
