<svg xmlns="http://www.w3.org/2000/svg" viewBox="0 0 512 512"><path fill="#fff" d="M331.72 236.52c-24.7 0-28.14 24.65-28.14 24.65h52.52s.34-24.65-24.38-24.65zm-119.16 24.65H166v42.75h44.2c6.63-.16 19.2-2.09 19.2-20.78 0-22.14-16.84-21.97-16.84-21.97z"/><path fill="#fff" d="M256.35 64.07c-105.85 0-191.66 85.8-191.66 191.65s85.81 191.66 191.66 191.66S448 361.57 448 255.72 362.18 64.07 256.35 64.07zm40.34 117.76h66v19.69h-66zm-33.35 103.3c0 48.81-50.78 47.2-50.78 47.2h-83.22V172.41h83.22c25.28 0 45.23 14 45.23 42.58s-24.4 30.43-24.4 30.43c32.17 0 29.95 39.71 29.95 39.71zm123.43-2.62H303.9c0 29.71 28.14 27.84 28.14 27.84 26.57 0 25.64-17.21 25.64-17.21h28.16c0 45.66-54.74 42.53-54.74 42.53-65.66 0-61.44-61.13-61.44-61.13s-.06-61.44 61.44-61.44c64.73 0 55.67 69.41 55.67 69.41z"/><path fill="#fff" d="M223.87 217.47c0-16.63-11.31-16.63-11.31-16.63H166v35.68h43.67c7.54 0 14.2-2.42 14.2-19.05z"/></svg>