<svg xmlns="http://www.w3.org/2000/svg" viewBox="0 0 512 512"><path fill="#fff" d="M256 447.38c-105.66 0-191.63-85.86-191.63-191.38S150.34 64.62 256 64.62 447.63 150.48 447.63 256 361.66 447.38 256 447.38zm161.6-165.24c-5.59-1.76-50.66-15.19-102-7C337 334 345.78 381.82 347.49 391.75a163.7 163.7 0 0070.11-109.61zm-97.66 124.52A680.47 680.47 0 00285 282.7l-1.08.37c-92.33 32.13-125.47 96.07-128.41 102.08a163.64 163.64 0 00164.43 21.51zm-185.6-41.17c3.71-6.34 48.64-80.62 133.06-107.87 2.13-.68 4.27-1.31 6.44-1.93-4.1-9.3-8.59-18.59-13.27-27.75-81.74 24.43-161.06 23.41-168.21 23.26 0 1.66-.09 3.32-.09 5a162.66 162.66 0 0042.17 109.34zM95.78 222.77c7.32.1 74.75.38 151.32-19.91a1042.71 1042.71 0 00-60.69-94.56 164.1 164.1 0 00-90.63 114.46zM217.64 97.3a870 870 0 0161.08 95.7c58.2-21.79 82.84-54.9 85.78-59.06a163.63 163.63 0 00-146.86-36.6zm165.07 55.57c-3.46 4.67-30.89 39.79-91.41 64.47 3.81 7.84 7.47 15.68 10.86 23.67q1.81 4.23 3.52 8.43c54.47-6.84 108.59 4.13 114 5.23a162.69 162.69 0 00-37-101.84z"/></svg>