<svg xmlns="http://www.w3.org/2000/svg" viewBox="0 0 512 512"><path fill="#fff" d="M255.988 64C149.97 64 64 149.962 64 256.015c0 84.822 55.009 156.787 131.31 182.18 9.601 1.761 13.105-4.167 13.105-9.255 0-4.558-.166-16.633-.259-32.656-53.408 11.603-64.677-25.738-64.677-25.738-8.73-22.18-21.318-28.086-21.318-28.086-17.432-11.913 1.32-11.671 1.32-11.671 19.267 1.358 29.408 19.787 29.408 19.787 17.128 29.34 44.937 20.868 55.878 15.953 1.744-12.408 6.704-20.868 12.19-25.668-42.635-4.846-87.457-21.318-87.457-94.894 0-20.961 7.481-38.1 19.763-51.522-1.974-4.858-8.563-24.38 1.882-50.814 0 0 16.121-5.162 52.799 19.683 15.314-4.258 31.739-6.388 48.067-6.462 16.305.074 32.73 2.204 48.067 6.462 36.656-24.845 52.747-19.683 52.747-19.683 10.475 26.435 3.885 45.956 1.91 50.814 12.306 13.422 19.736 30.561 19.736 51.522 0 73.76-44.89 89.99-87.663 94.744 6.894 5.928 13.035 17.646 13.035 35.557 0 25.668-.236 46.377-.236 52.672 0 5.134 3.458 11.108 13.202 9.233C393.037 412.733 448 340.815 448 256.015 448 149.962 362.028 64 255.988 64z"/></svg>