<svg xmlns="http://www.w3.org/2000/svg" width="512" height="512" viewBox="0 0 512 512"><path fill="#ffffff" d="M443.9 436.6l-4.2-28.7c-.9-6.3-4.4-15.8-7.7-21.2L311 189.1c-3.3-5.4-6-15-6-21.3V115c0-6.3 5.1-11.5 11.4-11.5h2.1c6.3 0 12.8-5 14.6-11.1l5-17.3c1.8-6.1-1.9-11.1-8.2-11.1H182.1c-6.3 0-9.9 5-8.2 11.1l5 17.3c1.8 6.1 8.3 11.1 14.6 11.1h2.1c6.3 0 11.4 5.2 11.4 11.5v52.8c0 6.3-2.7 15.9-6 21.3L80 386.7c-3.3 5.4-6.7 14.9-7.7 21.2l-4.2 28.7c-.9 6.3 3.4 11.4 9.7 11.4h356.4c6.2 0 10.6-5.1 9.7-11.4zm-71.4-30.1h-233c-4 0-5.6-2.8-3.5-6.3l33.6-55.3c2.1-3.5 7.1-6.3 11.2-6.3H335c4 0 8.9 2.9 10.9 6.5l30.4 55c1.9 3.5.3 6.4-3.8 6.4z" /></svg>
