<svg xmlns="http://www.w3.org/2000/svg" width="512" height="512" viewBox="0 0 512 512"><path fill="#526cff" d="M64.199 343.67l58.577-58.577 82.13 22.008 22.005 82.131-58.569 58.569c30.577 1.826 61.757-8.91 85.12-32.272 29.481-29.49 38.894-71.431 28.264-108.889l160.531-160.53c7.657-7.657 7.657-20.07.002-27.727L393.63 69.744c-7.656-7.658-20.071-7.659-27.729-.001L205.368 230.277c-37.458-10.624-79.406-1.212-108.889 28.264-23.365 23.366-34.104 54.556-32.28 85.13z" /><path fill="#454646" d="M112.476 399.53l35.707 9.544 26.164-26.161-9.544-35.709-35.709-9.545-26.164 26.162z" /></svg>
